<?xml version="1.0" encoding="UTF-8" standalone="no"?>
<svg width="137px" height="48px" viewBox="0 0 137 48" version="1.1" xmlns="http://www.w3.org/2000/svg" xmlns:xlink="http://www.w3.org/1999/xlink" xmlns:sketch="http://www.bohemiancoding.com/sketch/ns">
    <!-- Generator: Sketch 3.2.2 (9983) - http://www.bohemiancoding.com/sketch -->
    <title>观看直播</title>
    <desc>Created with Sketch.</desc>
    <defs></defs>
    <g id="Page-1" stroke="none" stroke-width="1" fill="none" fill-rule="evenodd" sketch:type="MSPage">
        <g id="Desktop" sketch:type="MSArtboardGroup" transform="translate(-363.000000, -381.000000)">
            <g id="Group" sketch:type="MSLayerGroup" transform="translate(0.000000, 134.000000)">
                <g id="观看直播" transform="translate(363.000000, 247.000000)" sketch:type="MSShapeGroup">
                    <rect id="Rectangle-2" stroke="#FFFFFF" fill="#FFFFFF" x="0" y="0" width="137" height="48" rx="24"></rect>
                    <path d="M44.932,17.8 L49.764,17.8 L49.764,25.304 L50.804,25.304 L50.804,16.856 L43.924,16.856 L43.924,25.304 L44.932,25.304 L44.932,17.8 Z M42.916,27.736 C42.612,26.824 42.036,25.704 41.364,24.52 C42.148,22.536 42.724,20.168 43.028,17.464 L42.34,17.272 L42.148,17.32 L37.396,17.32 L37.396,18.328 L41.892,18.328 C41.636,20.152 41.204,21.848 40.676,23.352 C39.94,22.168 39.108,20.936 38.308,19.896 L37.492,20.424 C38.436,21.688 39.396,23.16 40.212,24.584 C39.364,26.552 38.308,28.136 37.156,29.144 C37.412,29.336 37.764,29.72 37.94,29.944 C39.044,28.92 40.036,27.512 40.852,25.768 C41.348,26.728 41.764,27.624 42.004,28.376 L42.916,27.736 Z M47.732,19.24 L46.724,19.24 L46.724,22.392 C46.724,24.84 46.228,27.816 42.228,29.864 C42.436,30.008 42.772,30.408 42.884,30.632 C47.028,28.488 47.732,25.096 47.732,22.408 L47.732,19.24 Z M49.028,29.512 C48.596,29.512 48.452,29.4 48.452,28.968 L48.452,25.032 L47.46,25.032 L47.46,29.064 C47.46,30.056 47.876,30.328 48.884,30.328 L50.292,30.328 C51.62,30.328 51.78,29.704 51.908,27.208 C51.652,27.128 51.3,26.984 51.028,26.776 C50.964,29.096 50.868,29.512 50.308,29.512 L49.028,29.512 Z M64.868,25.176 L57.716,25.176 L57.716,24.008 L64.868,24.008 L64.868,25.176 Z M57.716,29.176 L57.716,27.896 L64.868,27.896 L64.868,29.176 L57.716,29.176 Z M64.868,27.144 L57.716,27.144 L57.716,25.944 L64.868,25.944 L64.868,27.144 Z M67.508,21.96 L67.508,21.064 L59.012,21.064 C59.22,20.648 59.412,20.216 59.572,19.8 L66.58,19.8 L66.58,18.936 L59.892,18.936 C60.036,18.52 60.164,18.104 60.276,17.672 C62.596,17.528 64.804,17.32 66.388,16.984 L65.7,16.2 C63.188,16.728 58.308,16.984 54.436,17.016 C54.548,17.256 54.644,17.608 54.66,17.848 C56.068,17.848 57.588,17.8 59.108,17.736 C58.996,18.136 58.884,18.536 58.756,18.936 L54.676,18.936 L54.676,19.8 L58.42,19.8 C58.244,20.216 58.068,20.664 57.844,21.064 L53.492,21.064 L53.492,21.96 L57.348,21.96 C56.324,23.656 54.932,25.16 53.124,26.232 C53.332,26.424 53.652,26.824 53.796,27.048 C54.9,26.376 55.86,25.56 56.692,24.632 L56.692,30.68 L57.716,30.68 L57.716,30.04 L64.868,30.04 L64.868,30.68 L65.924,30.68 L65.924,23.144 L57.844,23.144 C58.084,22.76 58.34,22.36 58.564,21.96 L67.508,21.96 Z M72.628,27.528 L80.452,27.528 L80.452,29.064 L72.628,29.064 L72.628,27.528 Z M80.452,20.712 L80.452,22.152 L72.628,22.152 L72.628,20.712 L80.452,20.712 Z M80.452,24.36 L72.628,24.36 L72.628,23 L80.452,23 L80.452,24.36 Z M72.628,25.208 L80.452,25.208 L80.452,26.68 L72.628,26.68 L72.628,25.208 Z M81.524,29.064 L81.524,19.8 L76.372,19.8 C76.468,19.4 76.564,18.92 76.66,18.456 L83.22,18.456 L83.22,17.48 L76.836,17.48 C76.916,17.032 76.996,16.584 77.06,16.168 L75.892,16.056 C75.86,16.472 75.796,16.968 75.732,17.48 L69.78,17.48 L69.78,18.456 L75.588,18.456 C75.524,18.936 75.46,19.4 75.364,19.8 L71.604,19.8 L71.604,29.064 L69.3,29.064 L69.3,30.04 L83.732,30.04 L83.732,29.064 L81.524,29.064 Z M89.828,22.712 L88.276,23.288 L88.276,20.312 L90.068,20.312 L90.068,19.32 L88.276,19.32 L88.276,16.072 L87.284,16.072 L87.284,19.32 L85.252,19.32 L85.252,20.312 L87.284,20.312 L87.284,23.656 C86.42,23.976 85.636,24.264 85.012,24.472 L85.268,25.512 L87.284,24.744 L87.284,29.368 C87.284,29.608 87.204,29.672 86.996,29.672 C86.82,29.688 86.196,29.688 85.476,29.656 C85.62,29.96 85.748,30.392 85.796,30.648 C86.804,30.664 87.396,30.632 87.764,30.456 C88.132,30.28 88.276,29.992 88.276,29.368 L88.276,24.344 C88.852,24.12 89.428,23.912 90.02,23.672 L89.828,22.712 Z M95.252,24.376 L95.252,21.64 C96.404,22.456 97.7,23.528 98.612,24.376 L95.252,24.376 Z M95.204,29.144 L95.204,27.48 L97.796,27.48 L97.796,29.144 L95.204,29.144 Z M91.924,27.48 L94.292,27.48 L94.292,29.144 L91.924,29.144 L91.924,27.48 Z M94.276,24.376 L91.364,24.376 C92.468,23.656 93.556,22.664 94.276,21.624 L94.276,24.376 Z M94.292,25.24 L94.292,26.648 L91.924,26.648 L91.924,25.24 L94.292,25.24 Z M97.796,26.648 L95.204,26.648 L95.204,25.24 L97.796,25.24 L97.796,26.648 Z M99.604,21.352 L99.604,20.456 L97.268,20.456 C97.62,19.768 98.052,18.856 98.388,18.04 L97.476,17.736 C97.204,18.536 96.708,19.704 96.308,20.456 L95.252,20.456 L95.252,17.544 C96.612,17.4 97.892,17.208 98.9,16.968 L98.276,16.168 C96.42,16.632 93.044,16.952 90.292,17.112 C90.388,17.32 90.516,17.672 90.548,17.912 C91.716,17.864 93.028,17.768 94.276,17.64 L94.276,20.456 L90.084,20.456 L90.084,21.352 L93.364,21.352 C92.436,22.552 90.916,23.672 89.508,24.232 C89.732,24.424 90.02,24.792 90.18,25.032 C90.436,24.904 90.692,24.776 90.964,24.632 L90.964,30.648 L91.924,30.648 L91.924,29.96 L97.796,29.96 L97.796,30.536 L98.788,30.536 L98.788,24.568 C98.932,24.696 99.06,24.808 99.172,24.936 L99.78,24.264 C99.028,23.464 97.54,22.296 96.228,21.352 L99.604,21.352 Z M91.332,18.312 C91.7,18.968 92.148,19.848 92.356,20.36 L93.236,20.024 C93.028,19.512 92.564,18.664 92.196,18.04 L91.332,18.312 Z" fill="#4D4D4D"></path>
                </g>
            </g>
        </g>
    </g>
</svg>