<?xml version="1.0" encoding="utf-8"?>
<!-- Generator: Adobe Illustrator 18.0.0, SVG Export Plug-In . SVG Version: 6.00 Build 0)  -->
<!DOCTYPE svg PUBLIC "-//W3C//DTD SVG 1.1//EN" "http://www.w3.org/Graphics/SVG/1.1/DTD/svg11.dtd">
<svg version="1.1" id="图层_1" xmlns="http://www.w3.org/2000/svg" xmlns:xlink="http://www.w3.org/1999/xlink" x="0px" y="0px"
	 viewBox="0 0 39.8 39.7" enable-background="new 0 0 39.8 39.7" xml:space="preserve">
<g>
	<g>
		<path fill="#2C2C2C" d="M19.8,38.9c-10.5,0-19-8.5-19-19s8.5-19,19-19s19,8.5,19,19S30.3,38.9,19.8,38.9z M19.8,2.9
			c-9.4,0-17,7.6-17,17s7.6,17,17,17s17-7.6,17-17S29.2,2.9,19.8,2.9z"/>
	</g>
	<g>
		<path fill="#2C2C2C" d="M18.1,30.8c-0.2-0.5-0.5-0.9-0.9-1.5l-3.6-5.4c-0.3-0.4-0.6-1-1-1.7c0,0.2,0,0.2,0.1,0.7
			c0,0.3,0,0.9,0,1.2v4.6c0,0.9,0,1.6,0.1,2.1h-2c0.1-0.5,0.1-1.2,0.1-2.1v-7.2c0-0.7,0-1.2-0.1-1.8H13c0.1,0.3,0.4,0.8,0.9,1.5
			l3.5,5.3c0.3,0.5,0.8,1.2,1.1,1.8c-0.1-0.5-0.1-1.4-0.1-2v-4.7c0-0.8,0-1.4-0.1-1.9h2c-0.1,0.6-0.1,1.1-0.1,1.9V29
			c0,0.8,0,1.3,0.1,1.8H18.1z"/>
		<path fill="#2C2C2C" d="M28.6,19.7c-0.1,0.6-0.1,0.9-0.1,1.8v6.3c0,1-0.3,1.8-0.8,2.3c-0.6,0.6-1.5,1-2.7,1
			c-1.3,0-2.2-0.3-2.8-1.1c-0.3-0.4-0.5-0.6-0.8-1.3l1.8-0.7c0.2,0.6,0.4,0.9,0.8,1.1c0.3,0.2,0.7,0.3,1.1,0.3c0.5,0,1-0.2,1.2-0.4
			c0.2-0.3,0.3-0.7,0.3-1.2v-6.2c0-0.8,0-1.2-0.1-1.8H28.6z"/>
	</g>
	<g>
		<path fill="#2C2C2C" d="M13.3,12.2c-0.1-0.1-0.3-0.3-0.6-0.4l-1.6-1c-0.2-0.1-0.3-0.2-0.7-0.5c0.2,0.2,0.4,0.5,0.5,0.6l1,1.3
			c0.2,0.3,0.3,0.4,0.5,0.6l-0.6,0.4c-0.1-0.2-0.2-0.3-0.4-0.6l-1.5-2c-0.2-0.3-0.3-0.4-0.5-0.6l0.7-0.5c0.1,0.1,0.3,0.2,0.5,0.4
			l2.3,1.4l-0.7-2.6c-0.1-0.3-0.1-0.4-0.2-0.6l0.7-0.5C13,7.8,13.1,8,13.3,8.2l1.5,2c0.2,0.3,0.3,0.4,0.5,0.6l-0.6,0.4
			c-0.1-0.2-0.2-0.3-0.4-0.6l-1-1.3c-0.2-0.4-0.4-0.6-0.4-0.6c0.1,0.3,0.2,0.5,0.2,0.7l0.4,1.9c0.1,0.2,0.2,0.5,0.2,0.7L13.3,12.2z"
			/>
		<path fill="#2C2C2C" d="M19,10.1c-0.1-0.2-0.1-0.4-0.2-0.5l-0.3-0.5L17,9.3l-0.1,0.6c-0.1,0.3-0.1,0.3-0.1,0.5L16,10.5
			c0.1-0.1,0.1-0.4,0.2-0.6l0.6-3c0.1-0.3,0.1-0.4,0.1-0.5l0.9-0.1c0,0.1,0.1,0.2,0.2,0.5l1.6,2.7c0.2,0.3,0.3,0.4,0.3,0.5L19,10.1z
			 M17.5,7.1c0-0.1-0.1-0.1-0.1-0.3c0,0.2,0,0.2,0,0.3L17,8.7l1.2-0.2L17.5,7.1z"/>
		<path fill="#2C2C2C" d="M21.7,6.9c0.1-0.3,0.1-0.4,0.1-0.6c0.2,0.1,0.3,0.1,0.6,0.2l0.9,0.3c0.6,0.2,1,0.4,1.2,0.8
			c0.3,0.4,0.3,1,0.1,1.6c-0.2,0.7-0.5,1.1-1,1.4c-0.4,0.2-0.8,0.2-1.4,0.1l-0.9-0.3c-0.3-0.1-0.4-0.1-0.6-0.2
			c0.1-0.2,0.1-0.3,0.2-0.6L21.7,6.9z M22.3,9.9C22.7,10,23,10,23.2,9.8c0.3-0.2,0.5-0.5,0.7-1C24,8.4,24,8,23.9,7.8
			c-0.1-0.3-0.4-0.4-0.8-0.5L22.3,7l-0.8,2.7L22.3,9.9z"/>
		<path fill="#2C2C2C" d="M27,13.4c-0.1-0.1-0.2-0.2-0.5-0.4l-1.2-1c-0.2-0.2-0.3-0.3-0.5-0.4c0.2-0.1,0.3-0.3,0.5-0.5L27,9
			c0.2-0.2,0.3-0.3,0.4-0.5c0.1,0.1,0.2,0.2,0.5,0.4l1.2,1c0.2,0.2,0.3,0.3,0.5,0.4l-0.4,0.5c-0.1-0.1-0.2-0.2-0.5-0.4l-1.1-0.9
			l-0.7,0.8l0.9,0.8c0.2,0.2,0.3,0.3,0.5,0.4l-0.4,0.5c-0.1-0.2-0.2-0.2-0.5-0.4l-0.9-0.8l-0.8,0.9l1.2,1c0.2,0.2,0.3,0.3,0.5,0.4
			L27,13.4z"/>
	</g>
	<g>
		<path fill="#2C2C2C" d="M17.6,13.5c0,0.2,0,0.3,0,0.6v2.7c0,0.3,0,0.5,0,0.6h-0.8c0-0.2,0-0.4,0-0.6v-2.7c0-0.3,0-0.4,0-0.6H17.6z
			"/>
		<path fill="#2C2C2C" d="M21.7,17.4c-0.1-0.2-0.2-0.3-0.3-0.5L20.1,15c-0.1-0.2-0.2-0.4-0.3-0.6c0,0.1,0,0.1,0,0.3
			c0,0.1,0,0.3,0,0.4v1.6c0,0.3,0,0.6,0,0.8h-0.7c0-0.2,0-0.4,0-0.8v-2.6c0-0.3,0-0.4,0-0.6h0.8c0,0.1,0.1,0.3,0.3,0.5l1.3,1.9
			c0.1,0.2,0.3,0.4,0.4,0.6c0-0.2,0-0.5,0-0.7v-1.7c0-0.3,0-0.5,0-0.7h0.7c0,0.2,0,0.4,0,0.7v2.6c0,0.3,0,0.5,0,0.6H21.7z"/>
	</g>
</g>
</svg>
