<?xml version="1.0" encoding="UTF-8" standalone="no"?>
<svg width="204px" height="48px" viewBox="0 0 204 48" version="1.1" xmlns="http://www.w3.org/2000/svg" xmlns:xlink="http://www.w3.org/1999/xlink" xmlns:sketch="http://www.bohemiancoding.com/sketch/ns">
    <!-- Generator: Sketch 3.2.2 (9983) - http://www.bohemiancoding.com/sketch -->
    <title>025</title>
    <desc>Created with Sketch.</desc>
    <defs></defs>
    <g id="Page-1" stroke="none" stroke-width="1" fill="none" fill-rule="evenodd" sketch:type="MSPage">
        <g id="Desktop" sketch:type="MSArtboardGroup" transform="translate(-516.000000, -380.000000)">
            <g id="Group" sketch:type="MSLayerGroup" transform="translate(0.000000, 134.000000)">
                <g id="025" transform="translate(516.000000, 246.000000)" sketch:type="MSShapeGroup">
                    <rect id="Rectangle-4" stroke="#FFFFFF" x="0" y="0" width="204" height="48" rx="24"></rect>
                    <path d="M74.125,24.6640625 C74.125,26.1171948 73.8033886,27.2304649 73.1601562,28.0039062 C72.5169239,28.7773476 71.6354223,29.1640625 70.515625,29.1640625 C69.3958277,29.1640625 68.5104199,28.7760455 67.859375,28 C67.2083301,27.2239545 66.8828125,26.1119864 66.8828125,24.6640625 L66.8828125,21.96875 C66.8828125,20.5208261 67.207028,19.407556 67.8554688,18.6289062 C68.5039095,17.8502565 69.3854111,17.4609375 70.5,17.4609375 C71.6197973,17.4609375 72.503903,17.8502565 73.1523438,18.6289062 C73.8007845,19.407556 74.125,20.5208261 74.125,21.96875 L74.125,24.6640625 Z M72.5859375,21.640625 C72.5859375,20.6562451 72.4075539,19.9153671 72.0507812,19.4179688 C71.6940086,18.9205704 71.1770867,18.671875 70.5,18.671875 C69.8229133,18.671875 69.3072934,18.9205704 68.953125,19.4179688 C68.5989566,19.9153671 68.421875,20.6562451 68.421875,21.640625 L68.421875,24.9765625 C68.421875,25.9609424 68.6015607,26.7044246 68.9609375,27.2070312 C69.3203143,27.7096379 69.8385383,27.9609375 70.515625,27.9609375 C71.1927117,27.9609375 71.7070295,27.71094 72.0585938,27.2109375 C72.410158,26.710935 72.5859375,25.9661508 72.5859375,24.9765625 L72.5859375,21.640625 Z M83.3125,29 L75.9375,29 L75.9375,27.9453125 L79.6640625,23.8046875 C80.3307325,23.0598921 80.7825509,22.4687522 81.0195312,22.03125 C81.2565116,21.5937478 81.375,21.1458356 81.375,20.6875 C81.375,20.1197888 81.2096371,19.641929 80.8789062,19.2539062 C80.5481754,18.8658835 80.1093777,18.671875 79.5625,18.671875 C78.7760377,18.671875 78.1966164,18.8736959 77.8242188,19.2773438 C77.4518211,19.6809916 77.265625,20.2473922 77.265625,20.9765625 L75.7890625,20.9765625 L75.7734375,20.9296875 C75.7473957,19.9505159 76.0729133,19.1276075 76.75,18.4609375 C77.4270867,17.7942675 78.3645773,17.4609375 79.5625,17.4609375 C80.5833384,17.4609375 81.3971324,17.7591116 82.0039062,18.3554688 C82.6106801,18.9518259 82.9140625,19.7109329 82.9140625,20.6328125 C82.9140625,21.2526073 82.7304706,21.8736948 82.3632812,22.4960938 C81.9960919,23.1184927 81.4817741,23.7864548 80.8203125,24.5 L77.828125,27.7578125 L77.84375,27.796875 L83.3125,27.796875 L83.3125,29 Z M85.390625,23.8671875 L86.046875,17.625 L91.7421875,17.625 L91.7421875,18.9921875 L87.3515625,18.9921875 L86.9765625,22.1875 C87.216147,22.0104158 87.4830714,21.8632818 87.7773438,21.7460938 C88.0716161,21.6289057 88.4114564,21.5651042 88.796875,21.5546875 C89.8437552,21.5442708 90.6679657,21.8854132 91.2695312,22.578125 C91.8710968,23.2708368 92.171875,24.2031191 92.171875,25.375 C92.171875,26.5156307 91.8658885,27.4322882 91.2539062,28.125 C90.641924,28.8177118 89.7500059,29.1640625 88.578125,29.1640625 C87.6145785,29.1640625 86.8125032,28.9010443 86.171875,28.375 C85.5312468,27.8489557 85.2239582,27.0755259 85.25,26.0546875 L85.265625,26.0078125 L86.65625,26.0078125 C86.65625,26.6276073 86.8346336,27.1080712 87.1914062,27.4492188 C87.5481789,27.7903663 88.0104138,27.9609375 88.578125,27.9609375 C89.2291699,27.9609375 89.7343732,27.7317731 90.09375,27.2734375 C90.4531268,26.8151019 90.6328125,26.187504 90.6328125,25.390625 C90.6328125,24.6614547 90.4505227,24.0625023 90.0859375,23.59375 C89.7213523,23.1249977 89.2187532,22.890625 88.578125,22.890625 C87.9739553,22.890625 87.5364597,22.9817699 87.265625,23.1640625 C86.9947903,23.3463551 86.7968756,23.6249981 86.671875,24 L85.390625,23.8671875 Z M97.1328125,24.796875 L93.3046875,24.796875 L93.3046875,23.59375 L97.1328125,23.59375 L97.1328125,24.796875 Z M105.304688,20.59375 C105.304688,21.187503 105.138023,21.707029 104.804688,22.1523438 C104.471352,22.5976585 104.020836,22.9296864 103.453125,23.1484375 C104.109378,23.3776053 104.634113,23.7369767 105.027344,24.2265625 C105.420575,24.7161483 105.617188,25.2812468 105.617188,25.921875 C105.617188,26.9739636 105.274743,27.777341 104.589844,28.3320312 C103.904944,28.8867215 103.01563,29.1640625 101.921875,29.1640625 C100.807286,29.1640625 99.9101596,28.8867215 99.2304688,28.3320312 C98.5507779,27.777341 98.2109375,26.9739636 98.2109375,25.921875 C98.2109375,25.2812468 98.4036439,24.7161483 98.7890625,24.2265625 C99.1744811,23.7369767 99.6953092,23.3776053 100.351562,23.1484375 C99.7838513,22.9296864 99.3385433,22.5976585 99.015625,22.1523438 C98.6927067,21.707029 98.53125,21.187503 98.53125,20.59375 C98.53125,19.593745 98.8398407,18.8216173 99.4570312,18.2773438 C100.074222,17.7330702 100.89062,17.4609375 101.90625,17.4609375 C102.906255,17.4609375 103.722653,17.7330702 104.355469,18.2773438 C104.988284,18.8216173 105.304688,19.593745 105.304688,20.59375 L105.304688,20.59375 Z M104.085938,25.890625 C104.085938,25.2656219 103.88021,24.7526062 103.46875,24.3515625 C103.05729,23.9505188 102.536461,23.75 101.90625,23.75 C101.265622,23.75 100.746096,23.9505188 100.347656,24.3515625 C99.9492168,24.7526062 99.75,25.2656219 99.75,25.890625 C99.75,26.5364616 99.9479147,27.0429669 100.34375,27.4101562 C100.739585,27.7773456 101.265622,27.9609375 101.921875,27.9609375 C102.562503,27.9609375 103.083331,27.7760435 103.484375,27.40625 C103.885419,27.0364565 104.085938,26.5312532 104.085938,25.890625 L104.085938,25.890625 Z M103.765625,20.625 C103.765625,20.0624972 103.589846,19.596356 103.238281,19.2265625 C102.886717,18.856769 102.442711,18.671875 101.90625,18.671875 C101.359372,18.671875 100.916668,18.8502586 100.578125,19.2070312 C100.239582,19.5638039 100.070312,20.0364554 100.070312,20.625 C100.070312,21.2031279 100.240884,21.6666649 100.582031,22.015625 C100.923179,22.3645851 101.369789,22.5390625 101.921875,22.5390625 C102.463544,22.5390625 102.906248,22.3645851 103.25,22.015625 C103.593752,21.6666649 103.765625,21.2031279 103.765625,20.625 L103.765625,20.625 Z M109.453125,22.6015625 L110.796875,22.6015625 C111.47917,22.6015625 111.962238,22.4309913 112.246094,22.0898438 C112.529949,21.7486962 112.671875,21.2734405 112.671875,20.6640625 C112.671875,20.0130176 112.510418,19.5182309 112.1875,19.1796875 C111.864582,18.8411441 111.388024,18.671875 110.757812,18.671875 C110.158851,18.671875 109.678387,18.8476545 109.316406,19.1992188 C108.954425,19.550783 108.773438,20.0182262 108.773438,20.6015625 L107.296875,20.6015625 L107.28125,20.5546875 C107.255208,19.6953082 107.566403,18.9648468 108.214844,18.3632812 C108.863284,17.7617157 109.710932,17.4609375 110.757812,17.4609375 C111.809901,17.4609375 112.648434,17.7408826 113.273438,18.3007812 C113.898441,18.8606799 114.210938,19.658849 114.210938,20.6953125 C114.210938,21.1640648 114.069012,21.6315081 113.785156,22.0976562 C113.501301,22.5638044 113.075524,22.9192696 112.507812,23.1640625 C113.190108,23.388022 113.673176,23.7395809 113.957031,24.21875 C114.240887,24.6979191 114.382812,25.234372 114.382812,25.828125 C114.382812,26.8645885 114.042972,27.6796845 113.363281,28.2734375 C112.68359,28.8671905 111.815109,29.1640625 110.757812,29.1640625 C109.721349,29.1640625 108.863285,28.8841174 108.183594,28.3242188 C107.503903,27.7643201 107.177083,27.0052131 107.203125,26.046875 L107.226562,26 L108.695312,26 C108.695312,26.5989613 108.878904,27.0755191 109.246094,27.4296875 C109.613283,27.7838559 110.117184,27.9609375 110.757812,27.9609375 C111.408857,27.9609375 111.919269,27.7838559 112.289062,27.4296875 C112.658856,27.0755191 112.84375,26.5520868 112.84375,25.859375 C112.84375,25.1562465 112.679689,24.6380225 112.351562,24.3046875 C112.023436,23.9713525 111.505212,23.8046875 110.796875,23.8046875 L109.453125,23.8046875 L109.453125,22.6015625 Z M118.460938,22.6015625 L119.804688,22.6015625 C120.486983,22.6015625 120.970051,22.4309913 121.253906,22.0898438 C121.537762,21.7486962 121.679688,21.2734405 121.679688,20.6640625 C121.679688,20.0130176 121.518231,19.5182309 121.195312,19.1796875 C120.872394,18.8411441 120.395836,18.671875 119.765625,18.671875 C119.166664,18.671875 118.6862,18.8476545 118.324219,19.1992188 C117.962238,19.550783 117.78125,20.0182262 117.78125,20.6015625 L116.304688,20.6015625 L116.289062,20.5546875 C116.263021,19.6953082 116.574216,18.9648468 117.222656,18.3632812 C117.871097,17.7617157 118.718745,17.4609375 119.765625,17.4609375 C120.817714,17.4609375 121.656247,17.7408826 122.28125,18.3007812 C122.906253,18.8606799 123.21875,19.658849 123.21875,20.6953125 C123.21875,21.1640648 123.076824,21.6315081 122.792969,22.0976562 C122.509113,22.5638044 122.083336,22.9192696 121.515625,23.1640625 C122.19792,23.388022 122.680988,23.7395809 122.964844,24.21875 C123.248699,24.6979191 123.390625,25.234372 123.390625,25.828125 C123.390625,26.8645885 123.050785,27.6796845 122.371094,28.2734375 C121.691403,28.8671905 120.822922,29.1640625 119.765625,29.1640625 C118.729161,29.1640625 117.871097,28.8841174 117.191406,28.3242188 C116.511715,27.7643201 116.184896,27.0052131 116.210938,26.046875 L116.234375,26 L117.703125,26 C117.703125,26.5989613 117.886717,27.0755191 118.253906,27.4296875 C118.621096,27.7838559 119.124997,27.9609375 119.765625,27.9609375 C120.41667,27.9609375 120.927081,27.7838559 121.296875,27.4296875 C121.666669,27.0755191 121.851562,26.5520868 121.851562,25.859375 C121.851562,25.1562465 121.687502,24.6380225 121.359375,24.3046875 C121.031248,23.9713525 120.513024,23.8046875 119.804688,23.8046875 L118.460938,23.8046875 L118.460938,22.6015625 Z M129.710938,17.4609375 C130.101564,17.4609375 130.488279,17.5052079 130.871094,17.59375 C131.253908,17.6822921 131.570311,17.7942702 131.820312,17.9296875 L131.492188,19.109375 C131.236978,18.979166 130.970053,18.8736983 130.691406,18.7929688 C130.412759,18.7122392 130.085939,18.671875 129.710938,18.671875 C128.898433,18.671875 128.243492,18.9973926 127.746094,19.6484375 C127.248695,20.2994824 127,21.1484323 127,22.1953125 L127,22.375 C127.333335,22.0833319 127.714842,21.8554696 128.144531,21.6914062 C128.574221,21.5273429 129.036456,21.4453125 129.53125,21.4453125 C130.54688,21.4453125 131.356768,21.7968715 131.960938,22.5 C132.565107,23.2031285 132.867188,24.0937446 132.867188,25.171875 C132.867188,26.3489642 132.545576,27.30859 131.902344,28.0507812 C131.259111,28.7929725 130.401047,29.1640625 129.328125,29.1640625 C128.213536,29.1640625 127.29167,28.7604207 126.5625,27.953125 C125.83333,27.1458293 125.46875,26.0078198 125.46875,24.5390625 L125.46875,22.3671875 C125.46875,20.9088469 125.874996,19.726567 126.6875,18.8203125 C127.500004,17.914058 128.507806,17.4609375 129.710938,17.4609375 L129.710938,17.4609375 Z M129.1875,22.59375 C128.661456,22.59375 128.213544,22.7005198 127.84375,22.9140625 C127.473956,23.1276052 127.192709,23.4114566 127,23.765625 L127,24.6875 C127,25.7343802 127.221352,26.5416638 127.664062,27.109375 C128.106773,27.6770862 128.661455,27.9609375 129.328125,27.9609375 C129.958336,27.9609375 130.449217,27.6940131 130.800781,27.1601562 C131.152346,26.6262994 131.328125,25.9635456 131.328125,25.171875 C131.328125,24.4218712 131.139325,23.8046899 130.761719,23.3203125 C130.384113,22.8359351 129.859378,22.59375 129.1875,22.59375 L129.1875,22.59375 Z M138.71875,17.4609375 C139.109377,17.4609375 139.496092,17.5052079 139.878906,17.59375 C140.261721,17.6822921 140.578124,17.7942702 140.828125,17.9296875 L140.5,19.109375 C140.24479,18.979166 139.977866,18.8736983 139.699219,18.7929688 C139.420572,18.7122392 139.093752,18.671875 138.71875,18.671875 C137.906246,18.671875 137.251305,18.9973926 136.753906,19.6484375 C136.256508,20.2994824 136.007812,21.1484323 136.007812,22.1953125 L136.007812,22.375 C136.341148,22.0833319 136.722654,21.8554696 137.152344,21.6914062 C137.582033,21.5273429 138.044268,21.4453125 138.539062,21.4453125 C139.554693,21.4453125 140.36458,21.7968715 140.96875,22.5 C141.57292,23.2031285 141.875,24.0937446 141.875,25.171875 C141.875,26.3489642 141.553389,27.30859 140.910156,28.0507812 C140.266924,28.7929725 139.40886,29.1640625 138.335938,29.1640625 C137.221349,29.1640625 136.299483,28.7604207 135.570312,27.953125 C134.841142,27.1458293 134.476562,26.0078198 134.476562,24.5390625 L134.476562,22.3671875 C134.476562,20.9088469 134.882808,19.726567 135.695312,18.8203125 C136.507817,17.914058 137.515619,17.4609375 138.71875,17.4609375 L138.71875,17.4609375 Z M138.195312,22.59375 C137.669268,22.59375 137.221356,22.7005198 136.851562,22.9140625 C136.481769,23.1276052 136.200522,23.4114566 136.007812,23.765625 L136.007812,24.6875 C136.007812,25.7343802 136.229164,26.5416638 136.671875,27.109375 C137.114586,27.6770862 137.669268,27.9609375 138.335938,27.9609375 C138.966149,27.9609375 139.457029,27.6940131 139.808594,27.1601562 C140.160158,26.6262994 140.335938,25.9635456 140.335938,25.171875 C140.335938,24.4218712 140.147137,23.8046899 139.769531,23.3203125 C139.391925,22.8359351 138.867191,22.59375 138.195312,22.59375 L138.195312,22.59375 Z M147.726562,17.4609375 C148.117189,17.4609375 148.503904,17.5052079 148.886719,17.59375 C149.269533,17.6822921 149.585936,17.7942702 149.835938,17.9296875 L149.507812,19.109375 C149.252603,18.979166 148.985678,18.8736983 148.707031,18.7929688 C148.428384,18.7122392 148.101564,18.671875 147.726562,18.671875 C146.914058,18.671875 146.259117,18.9973926 145.761719,19.6484375 C145.26432,20.2994824 145.015625,21.1484323 145.015625,22.1953125 L145.015625,22.375 C145.34896,22.0833319 145.730467,21.8554696 146.160156,21.6914062 C146.589846,21.5273429 147.052081,21.4453125 147.546875,21.4453125 C148.562505,21.4453125 149.372393,21.7968715 149.976562,22.5 C150.580732,23.2031285 150.882812,24.0937446 150.882812,25.171875 C150.882812,26.3489642 150.561201,27.30859 149.917969,28.0507812 C149.274736,28.7929725 148.416672,29.1640625 147.34375,29.1640625 C146.229161,29.1640625 145.307295,28.7604207 144.578125,27.953125 C143.848955,27.1458293 143.484375,26.0078198 143.484375,24.5390625 L143.484375,22.3671875 C143.484375,20.9088469 143.890621,19.726567 144.703125,18.8203125 C145.515629,17.914058 146.523431,17.4609375 147.726562,17.4609375 L147.726562,17.4609375 Z M147.203125,22.59375 C146.677081,22.59375 146.229169,22.7005198 145.859375,22.9140625 C145.489581,23.1276052 145.208334,23.4114566 145.015625,23.765625 L145.015625,24.6875 C145.015625,25.7343802 145.236977,26.5416638 145.679688,27.109375 C146.122398,27.6770862 146.67708,27.9609375 147.34375,27.9609375 C147.973961,27.9609375 148.464842,27.6940131 148.816406,27.1601562 C149.167971,26.6262994 149.34375,25.9635456 149.34375,25.171875 C149.34375,24.4218712 149.15495,23.8046899 148.777344,23.3203125 C148.399738,22.8359351 147.875003,22.59375 147.203125,22.59375 L147.203125,22.59375 Z M159.757812,18.8359375 C158.382806,20.4713623 157.454429,21.9205666 156.972656,23.1835938 C156.490883,24.4466209 156.14323,25.9765535 155.929688,27.7734375 L155.804688,29 L154.265625,29 L154.390625,27.7734375 C154.609376,25.9817619 155.033851,24.3802154 155.664062,22.96875 C156.294274,21.5572846 157.156245,20.1796942 158.25,18.8359375 L152.0625,18.8359375 L152.0625,17.625 L159.757812,17.625 L159.757812,18.8359375 Z M164.460938,27.9609375 C165.210941,27.9609375 165.811196,27.6770862 166.261719,27.109375 C166.712242,26.5416638 166.9375,25.6979223 166.9375,24.578125 L166.9375,24.0625 C166.68229,24.4322935 166.363283,24.7122386 165.980469,24.9023438 C165.597654,25.0924489 165.171877,25.1875 164.703125,25.1875 C163.604161,25.1875 162.731774,24.8476596 162.085938,24.1679688 C161.440101,23.4882779 161.117188,22.5520893 161.117188,21.359375 C161.117188,20.2187443 161.459632,19.2838578 162.144531,18.5546875 C162.829431,17.8255172 163.661453,17.4609375 164.640625,17.4609375 C165.828131,17.4609375 166.764319,17.8320275 167.449219,18.5742188 C168.134118,19.31641 168.476562,20.408847 168.476562,21.8515625 L168.476562,24.5625 C168.476562,26.0468824 168.105472,27.1848919 167.363281,27.9765625 C166.62109,28.7682331 165.653652,29.1640625 164.460938,29.1640625 C164.059894,29.1640625 163.652346,29.1263025 163.238281,29.0507812 C162.824217,28.97526 162.453127,28.8593758 162.125,28.703125 L162.359375,27.5234375 C162.666668,27.6848966 162.985675,27.7981768 163.316406,27.8632812 C163.647137,27.9283857 164.028644,27.9609375 164.460938,27.9609375 L164.460938,27.9609375 Z M164.703125,23.984375 C165.270836,23.984375 165.743488,23.8619804 166.121094,23.6171875 C166.4987,23.3723946 166.770832,23.0598977 166.9375,22.6796875 L166.9375,21.6953125 C166.9375,20.7005159 166.746096,19.9479192 166.363281,19.4375 C165.980467,18.9270808 165.421879,18.671875 164.6875,18.671875 C164.124997,18.671875 163.645835,18.9231746 163.25,19.4257812 C162.854165,19.9283879 162.65625,20.5729127 162.65625,21.359375 C162.65625,22.1406289 162.839842,22.7734351 163.207031,23.2578125 C163.574221,23.7421899 164.072914,23.984375 164.703125,23.984375 L164.703125,23.984375 Z" id="025-83366679" fill="#FFFFFF"></path>
                    <path d="M51.4583243,16.8641481 L49.2123107,19.1095822 C48.8501512,19.4711033 48.2201185,19.4723543 47.8585834,19.1095822 L47.2966117,18.5485364 C46.8795038,18.1313485 46.3268983,17.9105579 45.6968655,17.9105579 C44.355002,17.9105579 42.704054,18.8806605 40.7902282,20.7939705 C36.840816,24.741306 37.9041913,26.6583688 38.5442146,27.2988491 L39.1061863,27.8605204 C39.4789609,28.2333 39.4789609,28.8406305 39.1061863,29.2140355 L36.8607972,31.4582187 C36.4973888,31.8209907 35.8673561,31.8203653 35.505821,31.4588441 L34.9444737,30.8977983 C33.0556244,29.0088817 35.1124408,23.7624468 39.4358764,19.4404553 C42.5835423,16.2930948 46.2975509,14.2603202 48.8969822,14.2603202 C49.7667895,14.2603202 50.4399067,14.4917438 50.896977,14.9495872 L51.4583243,15.510633 C51.6394041,15.692019 51.7393102,15.9328246 51.7393102,16.188016 C51.7393102,16.4432074 51.6394041,16.6827621 51.4583243,16.8641481 L51.4583243,16.8641481 Z M52.3499861,14.619965 L51.7886388,14.0582937 C51.0961648,13.3658994 50.0958551,13 48.8969822,13 C45.9347669,13 41.9684955,15.125344 38.5442146,18.5485364 C33.5720139,23.5197648 31.5988688,29.336002 34.0528119,31.7890918 L34.6141592,32.3513885 C35.0331403,32.7692019 35.5907411,33 36.1833091,33 C36.7752526,33 37.3328534,32.7692019 37.7518345,32.3507631 L39.9978481,30.1047035 C40.8620357,29.2415562 40.8632845,27.8342507 39.9978481,26.9692269 L39.4358764,26.4075557 C38.8376887,25.8083563 39.1124305,24.2534401 41.68189,21.6846385 C43.8698331,19.4979985 45.1361427,19.1715036 45.6968655,19.1715036 C45.9928373,19.1715036 46.2244945,19.2596948 46.4049499,19.4404553 L46.9669216,20.0015011 C47.8042594,20.8390043 49.2666347,20.8402552 50.1039725,20.0015011 L52.3493617,17.7560671 C52.7695916,17.3376282 53,16.7809607 53,16.188016 C53,15.5956968 52.7695916,15.0384038 52.3499861,14.619965 L52.3499861,14.619965 Z" id="Fill-33" fill="#FFFFFF" transform="translate(43.000000, 23.000000) scale(1, -1) translate(-43.000000, -23.000000) "></path>
                </g>
            </g>
        </g>
    </g>
</svg>