<?xml version="1.0" encoding="UTF-8" standalone="no"?>
<svg width="354px" height="211px" viewBox="0 0 354 211" version="1.1" xmlns="http://www.w3.org/2000/svg" xmlns:xlink="http://www.w3.org/1999/xlink" xmlns:sketch="http://www.bohemiancoding.com/sketch/ns">
    <!-- Generator: Sketch 3.2.2 (9983) - http://www.bohemiancoding.com/sketch -->
    <title>TEXT</title>
    <desc>Created with Sketch.</desc>
    <defs>
        <linearGradient x1="7.27700632%" y1="48.0913465%" x2="82.8586071%" y2="57.7565033%" id="linearGradient-1">
            <stop stop-color="#FFFFFF" offset="19.69%"></stop>
            <stop stop-color="#F5EFF1" offset="100%"></stop>
        </linearGradient>
        <linearGradient x1="29.873501%" y1="34.4632148%" x2="77.611162%" y2="76.7833946%" id="linearGradient-2">
            <stop stop-color="#FFFFFF" offset="0%"></stop>
            <stop stop-color="#D7D7D7" offset="46.0060587%"></stop>
            <stop stop-color="#686868" offset="100%"></stop>
        </linearGradient>
        <linearGradient x1="8.1076887%" y1="14.9977312%" x2="74.1505648%" y2="77.2813481%" id="linearGradient-3">
            <stop stop-color="#D5D6D6" offset="18.72%"></stop>
            <stop stop-color="#C7C8C9" offset="56.42%"></stop>
            <stop stop-color="#B2B2B4" offset="100%"></stop>
        </linearGradient>
    </defs>
    <g id="Page-1" stroke="none" stroke-width="1" fill="none" fill-rule="evenodd" sketch:type="MSPage">
        <g id="Desktop" sketch:type="MSArtboardGroup" transform="translate(-364.000000, -135.000000)">
            <g id="Group" sketch:type="MSLayerGroup" transform="translate(0.000000, 134.000000)">
                <g id="TEXT" transform="translate(364.000000, 0.000000)" sketch:type="MSShapeGroup">
                    <g id="PROFESSIONAL-SD-LIVE-+-专业级超清直播解决方案" transform="translate(0.000000, 167.000000)" fill="#FFFFFF">
                        <path d="M26.07,11.66 L26.07,10.28 L10.23,10.28 C10.71,8.9 11.19,7.49 11.64,6.11 L23.94,6.11 L23.94,4.73 L12.09,4.73 C12.51,3.47 12.93,2.24 13.26,1.07 L11.76,1.07 C11.46,2.21 11.07,3.44 10.62,4.73 L2.73,4.73 L2.73,6.11 L10.2,6.11 C9.72,7.49 9.24,8.9 8.73,10.28 L0.36,10.28 L0.36,11.66 L8.28,11.66 C7.56,13.61 6.87,15.44 6.27,16.88 L20.67,16.88 C18.75,18.8 15.99,21.47 13.59,23.66 C11.52,22.82 9.3,22.01 7.32,21.44 L6.45,22.46 C10.92,23.87 16.56,26.36 19.38,28.1 L20.31,26.9 C18.99,26.12 17.1,25.16 15.03,24.29 C17.88,21.56 21.21,18.32 23.46,16.07 L22.35,15.41 L22.11,15.5 L8.37,15.5 C8.79,14.36 9.27,13.04 9.75,11.66 L26.07,11.66 Z M57.0950002,8.33 C55.8350002,11.42 53.6150002,15.68 51.8750002,18.38 L53.0450002,18.98 C54.8450002,16.28 56.9450002,12.23 58.4450002,8.96 L57.0950002,8.33 Z M39.8150002,18.17 C38.9750002,15.65 37.0550002,11.42 35.3450002,8.24 L33.9950002,8.63 C35.7050002,11.84 37.5950002,16.19 38.3750002,18.71 L39.8150002,18.17 Z M50.4950002,25.13 L50.4950002,1.43 L49.0550002,1.43 L49.0550002,25.13 L43.3850002,25.13 L43.3850002,1.37 L41.9150002,1.37 L41.9150002,25.13 L33.1850002,25.13 L33.1850002,26.57 L59.2550002,26.57 L59.2550002,25.13 L50.4950002,25.13 Z M68.4100004,17.84 C70.8100004,15.05 73.2100004,11.66 75.3400004,8.15 L74.0800004,7.43 C73.4500004,8.57 72.7900004,9.71 72.0400004,10.79 L67.2700004,11.36 C69.2200004,8.69 71.1100004,5.15 72.6400004,1.73 L71.2600004,1.07 C69.8800004,4.82 67.4800004,8.81 66.8200004,9.83 C66.1000004,10.85 65.5600004,11.63 65.0800004,11.72 C65.2600004,12.11 65.5000004,12.83 65.5600004,13.16 C65.9800004,12.98 66.6700004,12.8 71.1700004,12.14 C69.6100004,14.42 68.1400004,16.28 67.5100004,16.91 C66.5800004,18.02 65.8300004,18.83 65.2600004,18.95 C65.4400004,19.34 65.6500004,20.03 65.7400004,20.36 C66.3100004,19.91 67.1800004,19.58 75.3400004,17.12 C75.2500004,16.79 75.1900004,16.25 75.1900004,15.89 L68.4100004,17.84 Z M75.4600004,21.05 C71.6500004,22.4 67.7800004,23.81 65.2300004,24.59 L65.5600004,26.03 C68.3500004,25.04 72.1300004,23.66 75.7300004,22.34 L75.4600004,21.05 Z M86.7400004,4.4 C85.9900004,7.25 85.0000004,10.64 84.2200004,12.8 L89.4700004,12.8 C88.6600004,16.04 87.3100004,18.74 85.6300004,20.93 C83.3800004,17.93 81.6700004,14.21 80.5300004,10.31 C80.6800004,8.45 80.8000004,6.5 80.9200004,4.4 L86.7400004,4.4 Z M90.3100004,11.39 L90.0100004,11.45 L86.0800004,11.45 C86.8900004,9.02 87.8500004,5.66 88.6000004,3.02 L75.8200004,3.02 L75.8200004,4.4 L79.4500004,4.4 C79.0900004,14.36 78.1600004,22.31 74.0500004,27.32 C74.3500004,27.53 75.0400004,27.98 75.3100004,28.22 C78.1600004,24.44 79.5100004,19.58 80.2000004,13.52 C81.3700004,16.64 82.8700004,19.58 84.6700004,22.07 C82.6900004,24.32 80.2300004,26 77.6200004,27.11 C77.9500004,27.35 78.4600004,27.92 78.6700004,28.25 C81.1900004,27.08 83.5300004,25.4 85.5700004,23.18 C87.3100004,25.28 89.2900004,27.02 91.5400004,28.19 C91.7800004,27.8 92.2000004,27.26 92.5600004,26.99 C90.3100004,25.91 88.2400004,24.2 86.5000004,22.1 C88.6000004,19.4 90.2500004,16.04 91.1800004,11.81 L90.3100004,11.39 Z M122.775001,3.68 C122.535001,8.36 122.235001,10.1 121.785001,10.58 C121.605001,10.82 121.305001,10.85 120.825001,10.85 C120.405001,10.85 119.115001,10.85 117.735001,10.7 C117.945001,11.09 118.095001,11.6 118.125001,11.99 C119.445001,12.08 120.735001,12.11 121.365001,12.05 C122.115001,12.05 122.535001,11.87 122.955001,11.45 C123.585001,10.76 123.885001,8.69 124.185001,3.08 C124.215001,2.84 124.215001,2.36 124.215001,2.36 L111.165001,2.36 L111.165001,3.68 L115.875001,3.68 C115.425001,8.12 113.715001,10.85 110.265001,12.5 C110.565001,12.71 111.165001,13.22 111.375001,13.46 C114.885001,11.51 116.835001,8.57 117.315001,3.68 L122.775001,3.68 Z M113.655001,15.26 L122.175001,15.26 L122.175001,21.86 L113.655001,21.86 L113.655001,15.26 Z M112.275001,23.15 L123.585001,23.15 L123.585001,13.97 L112.275001,13.97 L112.275001,23.15 Z M105.495001,18.11 L110.625001,18.11 L110.625001,16.76 L105.495001,16.76 L105.495001,11.9 L110.865001,11.9 L110.865001,10.55 L105.225001,10.55 L105.225001,6.29 L110.205001,6.29 L110.205001,4.97 L105.225001,4.97 L105.225001,1.01 L103.845001,1.01 L103.845001,4.97 L98.8350006,4.97 L98.8350006,6.29 L103.845001,6.29 L103.845001,10.55 L98.2650006,10.55 L98.2650006,11.9 L104.145001,11.9 L104.145001,23.99 C102.705001,22.88 101.745001,21.23 101.025001,18.83 C101.115001,17.45 101.175001,16.01 101.235001,14.51 L99.8550006,14.42 C99.7350006,19.82 99.4350006,24.47 97.6350006,27.47 C97.9350006,27.65 98.5350006,28.1 98.7750006,28.25 C99.7950006,26.48 100.395001,24.2 100.725001,21.59 C102.825001,26.21 106.305001,27.41 113.265001,27.41 L124.755001,27.41 C124.845001,26.99 125.145001,26.33 125.415001,25.97 C124.065001,26 114.225001,26 113.205001,26 C109.875001,26 107.385001,25.7 105.495001,24.83 L105.495001,18.11 Z M137.720001,4.91 C136.640001,3.98 134.480001,2.48 132.860001,1.46 L132.020001,2.39 C133.640001,3.53 135.740001,5.06 136.850001,6.02 L137.720001,4.91 Z M136.130001,12.35 C135.020001,11.6 132.860001,10.37 131.270001,9.53 L130.520001,10.61 C132.170001,11.48 134.270001,12.74 135.380001,13.58 L136.130001,12.35 Z M132.470001,27.71 C134.000001,25.01 135.950001,21.08 137.330001,17.9 L136.280001,17.06 C134.780001,20.42 132.710001,24.47 131.240001,26.87 L132.470001,27.71 Z M142.040001,22.1 C142.130001,21.26 142.160001,20.42 142.160001,19.67 L142.160001,19.28 L153.920001,19.28 L153.920001,22.1 L142.040001,22.1 Z M153.920001,15.32 L153.920001,18.14 L142.160001,18.14 L142.160001,15.32 L153.920001,15.32 Z M155.360001,14.12 L140.750001,14.12 L140.750001,19.64 C140.750001,22.01 140.540001,25.13 138.950001,27.47 C139.280001,27.62 139.850001,28.16 140.030001,28.49 C141.110001,26.99 141.620001,25.1 141.920001,23.27 L153.920001,23.27 L153.920001,26.36 C153.920001,26.72 153.800001,26.81 153.380001,26.84 C152.990001,26.87 151.640001,26.87 150.080001,26.84 C150.290001,27.2 150.500001,27.71 150.590001,28.1 C152.600001,28.1 153.800001,28.1 154.490001,27.86 C155.150001,27.62 155.360001,27.23 155.360001,26.33 L155.360001,14.12 Z M148.760001,10.73 L148.760001,8 L156.260001,8 L156.260001,6.83 L148.760001,6.83 L148.760001,4.37 L157.250001,4.37 L157.250001,3.14 L148.760001,3.14 L148.760001,1.01 L147.320001,1.01 L147.320001,3.14 L138.650001,3.14 L138.650001,4.37 L147.320001,4.37 L147.320001,6.83 L139.370001,6.83 L139.370001,8 L147.320001,8 L147.320001,10.73 L137.660001,10.73 L137.660001,11.96 L157.790001,11.96 L157.790001,10.73 L148.760001,10.73 Z M169.285001,22.28 L184.705001,22.28 L184.705001,25.61 L169.285001,25.61 L169.285001,22.28 Z M184.705001,9.41 L184.705001,12.53 L169.285001,12.53 L169.285001,9.41 L184.705001,9.41 Z M184.705001,16.67 L169.285001,16.67 L169.285001,13.76 L184.705001,13.76 L184.705001,16.67 Z M169.285001,17.87 L184.705001,17.87 L184.705001,21.05 L169.285001,21.05 L169.285001,17.87 Z M186.145001,25.61 L186.145001,8.12 L176.305001,8.12 C176.485001,7.28 176.695001,6.23 176.875001,5.21 L189.415001,5.21 L189.415001,3.89 L177.115001,3.89 L177.595001,1.19 L176.035001,1.01 C175.945001,1.82 175.825001,2.87 175.675001,3.89 L164.335001,3.89 L164.335001,5.21 L175.465001,5.21 C175.285001,6.23 175.105001,7.28 174.925001,8.12 L167.875001,8.12 L167.875001,25.61 L163.375001,25.61 L163.375001,26.99 L190.405001,26.99 L190.405001,25.61 L186.145001,25.61 Z M204.840001,14.81 L204.600001,13.46 L201.420001,14.69 L201.420001,8.63 L204.990001,8.63 L204.990001,7.28 L201.420001,7.28 L201.420001,1.04 L200.070001,1.04 L200.070001,7.28 L195.960001,7.28 L195.960001,8.63 L200.070001,8.63 L200.070001,15.23 C198.360001,15.86 196.770001,16.46 195.570001,16.91 L195.960001,18.35 C197.190001,17.87 198.600001,17.3 200.070001,16.73 L200.070001,26.3 C200.070001,26.75 199.890001,26.87 199.500001,26.87 C199.170001,26.9 197.940001,26.9 196.500001,26.87 C196.710001,27.26 196.920001,27.86 196.980001,28.22 C198.870001,28.22 199.920001,28.19 200.550001,27.95 C201.150001,27.68 201.420001,27.29 201.420001,26.3 L201.420001,16.19 L204.840001,14.81 Z M219.870001,20.9 L214.440001,20.9 L214.440001,17.93 L219.870001,17.93 L219.870001,20.9 Z M214.440001,25.67 L214.440001,22.13 L219.870001,22.13 L219.870001,25.67 L214.440001,25.67 Z M208.200001,22.13 L213.120001,22.13 L213.120001,25.67 L208.200001,25.67 L208.200001,22.13 Z M213.120001,17.93 L213.120001,20.9 L208.200001,20.9 L208.200001,17.93 L213.120001,17.93 Z M222.840001,10.67 L222.840001,9.38 L218.160001,9.38 C218.910001,8 219.720001,6.14 220.410001,4.58 L219.090001,4.07 C218.580001,5.63 217.620001,7.91 216.840001,9.38 L214.470001,9.38 L214.470001,3.53 C217.110001,3.2 219.540001,2.81 221.400001,2.33 L220.470001,1.25 C217.110001,2.15 210.660001,2.75 205.470001,3.08 C205.620001,3.41 205.800001,3.89 205.860001,4.22 C208.140001,4.1 210.660001,3.92 213.120001,3.65 L213.120001,9.38 L204.990001,9.38 L204.990001,10.67 L211.680001,10.67 C209.850001,13.13 206.730001,15.47 204.000001,16.58 C204.330001,16.85 204.750001,17.33 204.960001,17.69 C207.870001,16.34 211.230001,13.64 213.120001,10.82 L213.120001,16.67 L206.880001,16.67 L206.880001,28.19 L208.200001,28.19 L208.200001,26.87 L219.870001,26.87 L219.870001,27.98 L221.220001,27.98 L221.220001,16.67 L214.470001,16.67 L214.470001,10.91 C217.290001,12.92 220.590001,15.77 222.240001,17.6 L223.110001,16.64 C221.610001,15.02 218.700001,12.59 216.090001,10.67 L222.840001,10.67 Z M207.510001,5.06 C208.290001,6.32 209.190001,8.06 209.640001,9.08 L210.870001,8.54 C210.420001,7.55 209.460001,5.87 208.680001,4.64 L207.510001,5.06 Z M236.495001,19.07 L236.495001,14.93 L239.795001,14.93 L239.795001,19.07 L236.495001,19.07 Z M231.995001,14.93 L235.325001,14.93 L235.325001,19.07 L231.935001,19.07 C231.965001,18.17 231.995001,17.3 231.995001,16.52 L231.995001,14.93 Z M237.365001,4.85 C236.915001,6.08 236.285001,7.49 235.685001,8.54 L231.725001,8.54 C232.355001,7.4 232.955001,6.17 233.495001,4.85 L237.365001,4.85 Z M236.495001,9.77 L239.795001,9.77 L239.795001,13.73 L236.495001,13.73 L236.495001,9.77 Z M231.995001,9.77 L235.325001,9.77 L235.325001,13.73 L231.995001,13.73 L231.995001,9.77 Z M241.085001,8.54 L237.065001,8.54 C237.815001,7.25 238.595001,5.6 239.105001,4.13 L238.235001,3.53 L237.995001,3.62 L233.945001,3.62 C234.215001,2.87 234.485001,2.09 234.695001,1.31 L233.285001,0.98 C232.325001,4.73 230.615001,8.33 228.425001,10.7 C228.785001,10.88 229.385001,11.33 229.625001,11.57 C230.015001,11.12 230.375001,10.64 230.735001,10.1 L230.735001,16.52 C230.735001,19.88 230.495001,24.35 228.455001,27.56 C228.785001,27.68 229.355001,28.01 229.565001,28.22 C230.975001,26 231.605001,23.06 231.845001,20.3 L239.795001,20.3 L239.795001,26.33 C239.795001,26.75 239.615001,26.87 239.195001,26.9 C238.775001,26.93 237.305001,26.93 235.565001,26.87 C235.745001,27.23 235.985001,27.8 236.075001,28.13 C238.295001,28.13 239.495001,28.13 240.155001,27.92 C240.845001,27.68 241.085001,27.2 241.085001,26.33 L241.085001,8.54 Z M253.655001,3.83 C253.415001,7.94 253.175001,9.5 252.755001,9.95 C252.575001,10.19 252.305001,10.22 251.855001,10.22 C251.435001,10.22 250.175001,10.19 248.825001,10.1 C249.005001,10.4 249.155001,10.94 249.185001,11.33 C250.445001,11.42 251.765001,11.45 252.335001,11.39 C253.085001,11.39 253.505001,11.21 253.865001,10.79 C254.495001,10.13 254.765001,8.27 255.035001,3.17 C255.065001,2.99 255.065001,2.51 255.065001,2.51 L242.225001,2.51 L242.225001,3.83 L246.725001,3.83 C246.125001,6.92 244.715001,9.74 241.295001,11.21 C241.595001,11.42 241.985001,11.87 242.195001,12.17 C245.885001,10.49 247.445001,7.43 248.135001,3.83 L253.655001,3.83 Z M255.905001,20.66 L249.815001,20.66 L249.815001,16.43 L255.395001,16.43 L255.395001,15.14 L249.815001,15.14 L249.815001,11.84 L248.405001,11.84 L248.405001,15.14 L245.105001,15.14 C245.405001,14.27 245.675001,13.34 245.885001,12.41 L244.505001,12.14 C243.965001,14.75 242.945001,17.3 241.565001,19.07 C241.925001,19.22 242.555001,19.55 242.825001,19.73 C243.485001,18.8 244.085001,17.69 244.595001,16.43 L248.405001,16.43 L248.405001,20.66 L241.655001,20.66 L241.655001,22.01 L248.405001,22.01 L248.405001,28.01 L249.815001,28.01 L249.815001,22.01 L255.905001,22.01 L255.905001,20.66 Z M267.520002,7.88 C266.590002,6.32 264.550002,3.92 262.840002,2.24 L261.700002,2.93 C263.440002,4.67 265.450002,7.13 266.320002,8.72 L267.520002,7.88 Z M266.560002,16.04 C265.000002,19.46 262.840002,23.54 261.340002,25.94 L262.570002,26.84 C264.190002,24.08 266.170002,20.12 267.610002,16.97 L266.560002,16.04 Z M278.470002,7.31 L283.870002,7.31 L283.870002,15.05 L278.260002,15.05 C278.440002,13.58 278.470002,12.14 278.470002,10.76 L278.470002,7.31 Z M288.580002,16.43 L288.580002,15.05 L285.250002,15.05 L285.250002,5.93 L278.470002,5.93 L278.470002,1.1 L277.030002,1.1 L277.030002,5.93 L270.670002,5.93 L270.670002,7.31 L277.030002,7.31 L277.030002,10.79 C277.030002,12.14 277.000002,13.58 276.820002,15.05 L268.990002,15.05 L268.990002,16.43 L276.610002,16.43 C275.860002,20.33 273.640002,24.29 267.430002,27.14 C267.730002,27.44 268.180002,27.95 268.390002,28.28 C274.930002,25.1 277.270002,20.72 278.050002,16.43 C279.580002,22.13 282.730002,26.24 287.620002,28.19 C287.860002,27.77 288.280002,27.26 288.610002,26.93 C283.900002,25.34 280.900002,21.56 279.430002,16.43 L288.580002,16.43 Z M309.735002,5.48 C309.315002,4.28 308.385002,2.42 307.575002,0.98 L306.225002,1.49 C307.005002,2.96 307.935002,4.91 308.325002,6.11 L309.735002,5.48 Z M320.355002,7.85 L320.355002,6.44 L294.945002,6.44 L294.945002,7.85 L303.435002,7.85 C303.075002,14.99 302.175002,23.33 294.195002,27.14 C294.555002,27.38 295.065002,27.89 295.275002,28.25 C301.065002,25.34 303.315002,20.18 304.245002,14.72 L315.705002,14.72 C315.135002,22.37 314.565002,25.4 313.635002,26.24 C313.275002,26.51 312.915002,26.57 312.255002,26.57 C311.475002,26.57 309.405002,26.54 307.185002,26.33 C307.485002,26.72 307.665002,27.29 307.695002,27.71 C309.675002,27.89 311.655002,27.95 312.645002,27.89 C313.695002,27.83 314.265002,27.68 314.865002,27.11 C315.975002,25.94 316.575002,22.76 317.205002,14.09 C317.235002,13.88 317.265002,13.31 317.265002,13.31 L304.485002,13.31 C304.755002,11.48 304.875002,9.65 304.995002,7.85 L320.355002,7.85 Z M329.210002,4.7 L351.440002,4.7 L351.440002,7.55 L352.820002,7.55 L352.820002,3.41 L341.630002,3.41 C341.240002,2.66 340.520002,1.67 339.950002,0.95 L338.630002,1.34 C339.110002,1.97 339.650002,2.72 340.040002,3.41 L327.860002,3.41 L327.860002,7.55 L329.210002,7.55 L329.210002,4.7 Z M345.140002,9.83 C343.970002,11.36 342.380002,12.53 340.340002,13.46 C338.270002,13.04 336.080002,12.65 333.890002,12.32 C334.700002,11.6 335.540002,10.73 336.440002,9.83 L345.140002,9.83 Z M352.670002,16.52 C350.030002,15.62 346.460002,14.72 342.470002,13.88 C344.360002,12.83 345.800002,11.51 346.880002,9.83 L353.270002,9.83 L353.270002,8.57 L347.600002,8.57 C347.900002,8 348.140002,7.4 348.320002,6.77 L346.940002,6.35 C346.700002,7.13 346.370002,7.91 345.950002,8.57 L337.580002,8.57 C338.360002,7.67 339.110002,6.74 339.710002,5.87 L338.240002,5.36 C337.550002,6.38 336.710002,7.49 335.720002,8.57 L327.350002,8.57 L327.350002,9.83 L334.580002,9.83 C333.500002,11.03 332.300002,12.14 331.310002,13.04 C333.680002,13.43 336.020002,13.79 338.240002,14.24 C335.360002,15.11 331.790002,15.62 327.410002,15.86 C327.650002,16.22 327.860002,16.7 328.010002,17.15 C333.320002,16.79 337.490002,16.07 340.700002,14.75 C344.960002,15.62 348.590002,16.55 351.200002,17.48 L352.670002,16.52 Z M335.090002,21.5 C333.380002,23.33 330.350002,24.98 327.620002,26 C327.980002,26.27 328.520002,26.78 328.760002,27.08 C331.460002,25.85 334.580002,24.02 336.470002,21.98 L335.090002,21.5 Z M343.790002,22.22 C346.640002,23.54 350.090002,25.61 351.800002,27.08 L352.760002,25.94 C350.990002,24.5 347.540002,22.55 344.690002,21.26 L343.790002,22.22 Z M340.910002,19.19 L340.910002,16.46 L339.500002,16.46 L339.500002,19.19 L326.990002,19.19 L326.990002,20.48 L339.500002,20.48 L339.500002,28.19 L340.910002,28.19 L340.910002,20.48 L353.570002,20.48 L353.570002,19.19 L340.910002,19.19 Z" id="专业级超清直播解决方案"></path>
                        <path d="M1.71,43.94 C1.65,43.6 1.63,43.29 1.63,42.81 L1.63,40.84 L3.86,40.84 C5.42,40.84 6.32,39.99 6.32,38.52 C6.32,37.13 5.45,36.34 3.91,36.34 L1.87,36.34 C1.41,36.34 1.13,36.33 0.77,36.31 C0.83,36.73 0.85,37.04 0.85,37.45 L0.85,42.82 C0.85,43.29 0.83,43.58 0.77,43.94 L1.71,43.94 Z M1.63,40.15 L1.63,37.03 L3.86,37.03 C4.94,37.03 5.52,37.56 5.52,38.56 C5.52,39.58 4.92,40.15 3.86,40.15 L1.63,40.15 Z M16.5099993,43.94 C16.3699993,43.7 16.2299993,43.4 16.0599993,43.01 C15.7499993,42.32 15.5099993,41.8 15.2699993,41.33 C14.9099993,40.62 14.6599993,40.35 14.2499993,40.23 C14.7899993,40.11 15.0399993,39.99 15.3299993,39.73 C15.7399993,39.38 15.9299993,38.9 15.9299993,38.26 C15.9299993,37.02 15.1299993,36.34 13.6799993,36.34 L11.4799993,36.34 C11.0199993,36.34 10.7399993,36.33 10.3899993,36.31 C10.4499993,36.71 10.4699993,37.03 10.4699993,37.46 L10.4699993,42.82 C10.4699993,43.31 10.4499993,43.58 10.3899993,43.94 L11.3199993,43.94 C11.2599993,43.58 11.2399993,43.32 11.2399993,42.81 L11.2399993,40.47 L13.0899993,40.47 C13.8899993,40.47 14.2799993,40.86 14.8599993,42.23 C15.2799993,43.23 15.4199993,43.64 15.4499993,43.94 L16.5099993,43.94 Z M11.2399993,39.78 L11.2399993,37.03 L13.6699993,37.03 C14.6199993,37.03 15.1199993,37.49 15.1199993,38.34 C15.1199993,38.77 14.9999993,39.1 14.7399993,39.35 C14.4699993,39.62 14.0599993,39.78 13.6099993,39.78 L11.2399993,39.78 Z M23.8599986,36.19 C21.7599986,36.19 20.3999986,37.74 20.3999986,40.14 C20.3999986,42.55 21.7399986,44.09 23.8499986,44.09 C25.9599986,44.09 27.3099986,42.55 27.3099986,40.14 C27.3099986,37.73 25.9699986,36.19 23.8599986,36.19 L23.8599986,36.19 Z M23.8699986,43.38 C22.2699986,43.38 21.2099986,42.09 21.2099986,40.13 C21.2099986,38.17 22.2599986,36.89 23.8599986,36.89 C24.5499986,36.89 25.1499986,37.13 25.6099986,37.58 C26.1899986,38.16 26.4899986,39.04 26.4899986,40.14 C26.4899986,41.21 26.1699986,42.14 25.5999986,42.7 C25.1499986,43.15 24.5599986,43.38 23.8699986,43.38 L23.8699986,43.38 Z M32.4699979,40.33 L34.8099979,40.33 C35.3299979,40.33 35.6199979,40.35 35.9499979,40.4 L35.9499979,39.56 C35.5799979,39.61 35.2899979,39.63 34.8099979,39.63 L32.4699979,39.63 L32.4699979,37.05 L35.3499979,37.05 C35.8799979,37.05 36.1699979,37.07 36.4999979,37.12 L36.4999979,36.27 C36.1199979,36.32 35.8399979,36.34 35.3499979,36.34 L32.6999979,36.34 C32.2199979,36.34 31.9499979,36.33 31.5999979,36.31 C31.6599979,36.7 31.6799979,37.02 31.6799979,37.45 L31.6799979,42.77 C31.6799979,43.29 31.6599979,43.6 31.5999979,43.94 L32.5499979,43.94 C32.4899979,43.58 32.4699979,43.31 32.4699979,42.77 L32.4699979,40.33 Z M45.7699971,43.17 C45.3999971,43.22 45.1199971,43.24 44.6599971,43.24 L41.4899971,43.24 L41.4899971,40.3 L44.1199971,40.3 C44.6399971,40.3 44.8999971,40.32 45.2399971,40.37 L45.2399971,39.53 C44.8599971,39.58 44.5599971,39.6 44.1199971,39.6 L41.4899971,39.6 L41.4899971,37.04 L44.5699971,37.04 C45.0699971,37.04 45.3399971,37.06 45.6899971,37.11 L45.6899971,36.27 C45.3499971,36.32 45.0099971,36.34 44.5699971,36.34 L41.7199971,36.34 C41.2399971,36.34 40.9699971,36.33 40.6199971,36.31 C40.6799971,36.75 40.6999971,37.02 40.6999971,37.45 L40.6999971,42.78 C40.6999971,43.29 40.6799971,43.59 40.6199971,43.97 C40.9599971,43.95 41.2399971,43.94 41.7199971,43.94 L44.6499971,43.94 C45.1799971,43.94 45.4499971,43.96 45.7699971,44.01 L45.7699971,43.17 Z M55.2799964,38.19 C55.1699964,37.68 55.0699964,37.43 54.8399964,37.13 C54.3899964,36.53 53.6199964,36.21 52.6299964,36.21 C51.0799964,36.21 50.0699964,37.02 50.0699964,38.28 C50.0699964,38.98 50.3799964,39.51 50.9999964,39.86 C51.3399964,40.05 51.7299964,40.19 52.3599964,40.32 C53.5699964,40.59 53.6799964,40.62 54.0099964,40.81 C54.3899964,41.02 54.5899964,41.39 54.5899964,41.88 C54.5899964,42.81 53.8699964,43.37 52.6799964,43.37 C51.9399964,43.37 51.3399964,43.12 51.0099964,42.68 C50.7999964,42.41 50.7299964,42.17 50.6999964,41.69 L49.8299964,41.8 C49.9299964,42.46 50.0399964,42.77 50.2999964,43.12 C50.7599964,43.74 51.5899964,44.07 52.7099964,44.07 C54.4299964,44.07 55.3999964,43.27 55.3999964,41.86 C55.3999964,40.7 54.7599964,40.09 53.1599964,39.75 C52.0099964,39.5 51.9999964,39.5 51.7299964,39.39 C51.1399964,39.15 50.8599964,38.78 50.8599964,38.26 C50.8599964,37.45 51.5799964,36.9 52.6099964,36.9 C53.2599964,36.9 53.7699964,37.1 54.0899964,37.48 C54.2799964,37.71 54.3599964,37.91 54.4399964,38.31 L55.2799964,38.19 Z M64.9699957,38.19 C64.8599957,37.68 64.7599957,37.43 64.5299957,37.13 C64.0799957,36.53 63.3099957,36.21 62.3199957,36.21 C60.7699957,36.21 59.7599957,37.02 59.7599957,38.28 C59.7599957,38.98 60.0699957,39.51 60.6899957,39.86 C61.0299957,40.05 61.4199957,40.19 62.0499957,40.32 C63.2599957,40.59 63.3699957,40.62 63.6999957,40.81 C64.0799957,41.02 64.2799957,41.39 64.2799957,41.88 C64.2799957,42.81 63.5599957,43.37 62.3699957,43.37 C61.6299957,43.37 61.0299957,43.12 60.6999957,42.68 C60.4899957,42.41 60.4199957,42.17 60.3899957,41.69 L59.5199957,41.8 C59.6199957,42.46 59.7299957,42.77 59.9899957,43.12 C60.4499957,43.74 61.2799957,44.07 62.3999957,44.07 C64.1199957,44.07 65.0899957,43.27 65.0899957,41.86 C65.0899957,40.7 64.4499957,40.09 62.8499957,39.75 C61.6999957,39.5 61.6899957,39.5 61.4199957,39.39 C60.8299957,39.15 60.5499957,38.78 60.5499957,38.26 C60.5499957,37.45 61.2699957,36.9 62.2999957,36.9 C62.9499957,36.9 63.4599957,37.1 63.7799957,37.48 C63.9699957,37.71 64.0499957,37.91 64.1299957,38.31 L64.9699957,38.19 Z M69.429995,36.34 C69.489995,36.7 69.509995,36.96 69.509995,37.46 L69.509995,42.82 C69.509995,43.32 69.489995,43.57 69.429995,43.94 L70.379995,43.94 C70.319995,43.6 70.289995,43.26 70.289995,42.82 L70.289995,37.46 C70.289995,37.04 70.319995,36.67 70.379995,36.34 L69.429995,36.34 Z M78.1299943,36.19 C76.0299943,36.19 74.6699943,37.74 74.6699943,40.14 C74.6699943,42.55 76.0099943,44.09 78.1199943,44.09 C80.2299943,44.09 81.5799943,42.55 81.5799943,40.14 C81.5799943,37.73 80.2399943,36.19 78.1299943,36.19 L78.1299943,36.19 Z M78.1399943,43.38 C76.5399943,43.38 75.4799943,42.09 75.4799943,40.13 C75.4799943,38.17 76.5299943,36.89 78.1299943,36.89 C78.8199943,36.89 79.4199943,37.13 79.8799943,37.58 C80.4599943,38.16 80.7599943,39.04 80.7599943,40.14 C80.7599943,41.21 80.4399943,42.14 79.8699943,42.7 C79.4199943,43.15 78.8299943,43.38 78.1399943,43.38 L78.1399943,43.38 Z M85.8899936,36.34 C85.9499936,36.7 85.9699936,37 85.9699936,37.46 L85.9699936,42.75 C85.9699936,43.27 85.9499936,43.62 85.8899936,43.94 L86.8199936,43.94 C86.7599936,43.61 86.7399936,43.28 86.7399936,42.75 L86.7399936,38.48 C86.7399936,38.22 86.7199936,37.73 86.6799936,37.26 C86.8199936,37.53 87.1499936,38.1 87.2299936,38.22 L90.4399936,43.04 C90.7099936,43.45 90.8199936,43.65 90.9599936,43.94 L92.0499936,43.94 C91.9899936,43.62 91.9699936,43.32 91.9699936,42.82 L91.9699936,37.49 C91.9699936,36.98 91.9899936,36.7 92.0499936,36.34 L91.1199936,36.34 C91.1799936,36.69 91.1999936,37 91.1999936,37.49 L91.1999936,41.73 C91.1999936,41.82 91.2199936,42.26 91.2599936,43.06 C91.0199936,42.63 90.7199936,42.14 90.6099936,41.97 L87.4499936,37.24 C87.1599936,36.79 87.0299936,36.57 86.9399936,36.34 L85.8899936,36.34 Z M103.199993,43.94 C103.049993,43.68 102.919993,43.39 102.669993,42.79 L100.429993,37.27 C100.179993,36.66 100.129993,36.53 100.089993,36.34 L99.0799928,36.34 C99.0299928,36.57 98.9499928,36.8 98.7599928,37.27 L96.5199928,42.79 C96.2499928,43.46 96.1799928,43.61 95.9799928,43.94 L97.0199928,43.94 C97.0899928,43.59 97.1799928,43.3 97.3299928,42.92 L97.8499928,41.63 L101.339993,41.63 L101.859993,42.92 C101.979993,43.23 102.089993,43.58 102.169993,43.94 L103.199993,43.94 Z M101.099993,40.94 L98.0899928,40.94 L99.3699928,37.64 C99.3899928,37.6 99.4199928,37.49 99.4799928,37.33 C99.4999928,37.26 99.5399928,37.15 99.5899928,37 C99.7799928,37.55 99.7799928,37.56 99.8099928,37.64 L101.099993,40.94 Z M111.119992,43.94 C111.679992,43.94 111.959992,43.96 112.279992,44.01 L112.279992,43.16 C111.889992,43.21 111.619992,43.23 111.119992,43.23 L107.969992,43.23 L107.969992,37.52 C107.969992,36.97 107.989992,36.71 108.049992,36.34 L107.109992,36.34 C107.169992,36.69 107.189992,37 107.189992,37.52 L107.189992,42.78 C107.189992,43.27 107.169992,43.59 107.109992,43.97 C107.459992,43.95 107.739992,43.94 108.199992,43.94 L111.119992,43.94 Z M127.759991,36.34 C127.819991,36.68 127.839991,36.99 127.839991,37.46 L127.839991,39.58 L123.319991,39.58 L123.319991,37.44 C123.319991,36.97 123.339991,36.71 123.399991,36.34 L122.459991,36.34 C122.519991,36.69 122.539991,36.98 122.539991,37.46 L122.539991,42.82 C122.539991,43.31 122.519991,43.6 122.459991,43.94 L123.399991,43.94 C123.339991,43.58 123.319991,43.32 123.319991,42.82 L123.319991,40.29 L127.839991,40.29 L127.839991,42.82 C127.839991,43.3 127.819991,43.57 127.759991,43.94 L128.699991,43.94 C128.639991,43.55 128.619991,43.31 128.619991,42.82 L128.619991,37.44 C128.619991,36.97 128.639991,36.72 128.699991,36.34 L127.759991,36.34 Z M133.31999,42.78 C133.31999,43.28 133.29999,43.58 133.23999,43.97 C133.58999,43.95 133.85999,43.94 134.33999,43.94 L136.02999,43.94 C137.02999,43.94 137.85999,43.64 138.45999,43.05 C139.14999,42.38 139.52999,41.34 139.52999,40.09 C139.52999,37.7 138.25999,36.34 136.02999,36.34 L134.33999,36.34 C133.85999,36.34 133.58999,36.33 133.23999,36.31 C133.29999,36.73 133.31999,37.02 133.31999,37.45 L133.31999,42.78 Z M134.09999,43.24 L134.09999,37.04 L136.04999,37.04 C136.86999,37.04 137.48999,37.26 137.92999,37.72 C138.45999,38.25 138.71999,39.05 138.71999,40.09 C138.71999,41.12 138.42999,41.97 137.87999,42.53 C137.42999,43.01 136.79999,43.24 136.00999,43.24 L134.09999,43.24 Z M154.159989,43.94 C154.719989,43.94 154.999989,43.96 155.319989,44.01 L155.319989,43.16 C154.929989,43.21 154.659989,43.23 154.159989,43.23 L151.009989,43.23 L151.009989,37.52 C151.009989,36.97 151.029989,36.71 151.089989,36.34 L150.149989,36.34 C150.209989,36.69 150.229989,37 150.229989,37.52 L150.229989,42.78 C150.229989,43.27 150.209989,43.59 150.149989,43.97 C150.499989,43.95 150.779989,43.94 151.239989,43.94 L154.159989,43.94 Z M159.169988,36.34 C159.229988,36.7 159.249988,36.96 159.249988,37.46 L159.249988,42.82 C159.249988,43.32 159.229988,43.57 159.169988,43.94 L160.119988,43.94 C160.059988,43.6 160.029988,43.26 160.029988,42.82 L160.029988,37.46 C160.029988,37.04 160.059988,36.67 160.119988,36.34 L159.169988,36.34 Z M165.349987,37.36 C165.219987,36.99 165.119987,36.66 165.059987,36.34 L164.029987,36.34 C164.149987,36.55 164.319987,36.92 164.539987,37.5 L166.679987,43.01 C166.889987,43.53 166.959987,43.73 166.999987,43.94 L167.969987,43.94 C168.019987,43.73 168.109987,43.45 168.279987,43.01 L170.419987,37.5 C170.669987,36.85 170.769987,36.61 170.929987,36.34 L169.889987,36.34 C169.859987,36.6 169.779987,36.89 169.599987,37.36 L167.719987,42.48 C167.649987,42.69 167.589987,42.87 167.489987,43.18 C167.389987,42.88 167.289987,42.59 167.249987,42.48 L165.349987,37.36 Z M179.979986,43.17 C179.609986,43.22 179.329986,43.24 178.869986,43.24 L175.699986,43.24 L175.699986,40.3 L178.329986,40.3 C178.849986,40.3 179.109986,40.32 179.449986,40.37 L179.449986,39.53 C179.069986,39.58 178.769986,39.6 178.329986,39.6 L175.699986,39.6 L175.699986,37.04 L178.779986,37.04 C179.279986,37.04 179.549986,37.06 179.899986,37.11 L179.899986,36.27 C179.559986,36.32 179.219986,36.34 178.779986,36.34 L175.929986,36.34 C175.449986,36.34 175.179986,36.33 174.829986,36.31 C174.889986,36.75 174.909986,37.02 174.909986,37.45 L174.909986,42.78 C174.909986,43.29 174.889986,43.59 174.829986,43.97 C175.169986,43.95 175.449986,43.94 175.929986,43.94 L178.859986,43.94 C179.389986,43.94 179.659986,43.96 179.979986,44.01 L179.979986,43.17 Z M189.489986,38.19 C189.379986,37.68 189.279986,37.43 189.049986,37.13 C188.599986,36.53 187.829986,36.21 186.839986,36.21 C185.289986,36.21 184.279986,37.02 184.279986,38.28 C184.279986,38.98 184.589986,39.51 185.209986,39.86 C185.549986,40.05 185.939986,40.19 186.569986,40.32 C187.779986,40.59 187.889986,40.62 188.219986,40.81 C188.599986,41.02 188.799986,41.39 188.799986,41.88 C188.799986,42.81 188.079986,43.37 186.889986,43.37 C186.149986,43.37 185.549986,43.12 185.219986,42.68 C185.009986,42.41 184.939986,42.17 184.909986,41.69 L184.039986,41.8 C184.139986,42.46 184.249986,42.77 184.509986,43.12 C184.969986,43.74 185.799986,44.07 186.919986,44.07 C188.639986,44.07 189.609986,43.27 189.609986,41.86 C189.609986,40.7 188.969986,40.09 187.369986,39.75 C186.219986,39.5 186.209986,39.5 185.939986,39.39 C185.349986,39.15 185.069986,38.78 185.069986,38.26 C185.069986,37.45 185.789986,36.9 186.819986,36.9 C187.469986,36.9 187.979986,37.1 188.299986,37.48 C188.489986,37.71 188.569986,37.91 188.649986,38.31 L189.489986,38.19 Z M196.809985,37.04 L198.359985,37.04 C198.919985,37.04 199.209985,37.06 199.539985,37.11 L199.539985,36.27 C199.209985,36.32 198.939985,36.34 198.359985,36.34 L194.459985,36.34 C193.929985,36.34 193.669985,36.32 193.319985,36.27 L193.319985,37.11 C193.649985,37.06 193.959985,37.04 194.469985,37.04 L196.029985,37.04 L196.029985,42.81 C196.029985,43.28 196.009985,43.63 195.949985,43.94 L196.889985,43.94 C196.829985,43.58 196.809985,43.3 196.809985,42.81 L196.809985,37.04 Z M209.559984,43.94 C209.419984,43.7 209.279984,43.4 209.109984,43.01 C208.799984,42.32 208.559984,41.8 208.319984,41.33 C207.959984,40.62 207.709984,40.35 207.299984,40.23 C207.839984,40.11 208.089984,39.99 208.379984,39.73 C208.789984,39.38 208.979984,38.9 208.979984,38.26 C208.979984,37.02 208.179984,36.34 206.729984,36.34 L204.529984,36.34 C204.069984,36.34 203.789984,36.33 203.439984,36.31 C203.499984,36.71 203.519984,37.03 203.519984,37.46 L203.519984,42.82 C203.519984,43.31 203.499984,43.58 203.439984,43.94 L204.369984,43.94 C204.309984,43.58 204.289984,43.32 204.289984,42.81 L204.289984,40.47 L206.139984,40.47 C206.939984,40.47 207.329984,40.86 207.909984,42.23 C208.329984,43.23 208.469984,43.64 208.499984,43.94 L209.559984,43.94 Z M204.289984,39.78 L204.289984,37.03 L206.719984,37.03 C207.669984,37.03 208.169984,37.49 208.169984,38.34 C208.169984,38.77 208.049984,39.1 207.789984,39.35 C207.519984,39.62 207.109984,39.78 206.659984,39.78 L204.289984,39.78 Z M218.849984,43.17 C218.479984,43.22 218.199984,43.24 217.739984,43.24 L214.569984,43.24 L214.569984,40.3 L217.199984,40.3 C217.719984,40.3 217.979984,40.32 218.319984,40.37 L218.319984,39.53 C217.939984,39.58 217.639984,39.6 217.199984,39.6 L214.569984,39.6 L214.569984,37.04 L217.649984,37.04 C218.149984,37.04 218.419984,37.06 218.769984,37.11 L218.769984,36.27 C218.429984,36.32 218.089984,36.34 217.649984,36.34 L214.799984,36.34 C214.319984,36.34 214.049984,36.33 213.699984,36.31 C213.759984,36.75 213.779984,37.02 213.779984,37.45 L213.779984,42.78 C213.779984,43.29 213.759984,43.59 213.699984,43.97 C214.039984,43.95 214.319984,43.94 214.799984,43.94 L217.729984,43.94 C218.259984,43.94 218.529984,43.96 218.849984,44.01 L218.849984,43.17 Z M229.719983,43.94 C229.569983,43.68 229.439983,43.39 229.189983,42.79 L226.949983,37.27 C226.699983,36.66 226.649983,36.53 226.609983,36.34 L225.599983,36.34 C225.549983,36.57 225.469983,36.8 225.279983,37.27 L223.039983,42.79 C222.769983,43.46 222.699983,43.61 222.499983,43.94 L223.539983,43.94 C223.609983,43.59 223.699983,43.3 223.849983,42.92 L224.369983,41.63 L227.859983,41.63 L228.379983,42.92 C228.499983,43.23 228.609983,43.58 228.689983,43.94 L229.719983,43.94 Z M227.619983,40.94 L224.609983,40.94 L225.889983,37.64 C225.909983,37.6 225.939983,37.49 225.999983,37.33 C226.019983,37.26 226.059983,37.15 226.109983,37 C226.299983,37.55 226.299983,37.56 226.329983,37.64 L227.619983,40.94 Z M236.849982,42.89 C237.049982,43.34 237.169982,43.68 237.219982,43.94 L237.929982,43.94 C238.009982,43.61 238.109982,43.35 238.309982,42.9 L240.349982,38.41 C240.539982,38 240.679982,37.6 240.779982,37.19 C240.739982,37.6 240.709982,38.14 240.709982,38.42 L240.709982,42.76 C240.709982,43.24 240.689982,43.6 240.629982,43.94 L241.539982,43.94 C241.479982,43.58 241.459982,43.31 241.459982,42.76 L241.459982,37.53 C241.459982,37.01 241.479982,36.72 241.539982,36.34 L240.389982,36.34 C240.329982,36.63 240.219982,36.94 240.049982,37.33 L237.589982,42.84 L235.119982,37.33 C234.969982,37 234.849982,36.64 234.789982,36.34 L233.629982,36.34 C233.689982,36.71 233.709982,37.03 233.709982,37.53 L233.709982,42.76 C233.709982,43.28 233.689982,43.57 233.629982,43.94 L234.539982,43.94 C234.479982,43.6 234.459982,43.29 234.459982,42.76 L234.459982,38.48 C234.459982,38.24 234.419982,37.62 234.389982,37.19 C234.579982,37.8 234.689982,38.11 234.839982,38.43 L236.849982,42.89 Z M246.079981,36.34 C246.139981,36.7 246.159981,36.96 246.159981,37.46 L246.159981,42.82 C246.159981,43.32 246.139981,43.57 246.079981,43.94 L247.029981,43.94 C246.969981,43.6 246.939981,43.26 246.939981,42.82 L246.939981,37.46 C246.939981,37.04 246.969981,36.67 247.029981,36.34 L246.079981,36.34 Z M251.589981,36.34 C251.649981,36.7 251.669981,37 251.669981,37.46 L251.669981,42.75 C251.669981,43.27 251.649981,43.62 251.589981,43.94 L252.519981,43.94 C252.459981,43.61 252.439981,43.28 252.439981,42.75 L252.439981,38.48 C252.439981,38.22 252.419981,37.73 252.379981,37.26 C252.519981,37.53 252.849981,38.1 252.929981,38.22 L256.139981,43.04 C256.409981,43.45 256.519981,43.65 256.659981,43.94 L257.749981,43.94 C257.689981,43.62 257.669981,43.32 257.669981,42.82 L257.669981,37.49 C257.669981,36.98 257.689981,36.7 257.749981,36.34 L256.819981,36.34 C256.879981,36.69 256.899981,37 256.899981,37.49 L256.899981,41.73 C256.899981,41.82 256.919981,42.26 256.959981,43.06 C256.719981,42.63 256.419981,42.14 256.309981,41.97 L253.149981,37.24 C252.859981,36.79 252.729981,36.57 252.639981,36.34 L251.589981,36.34 Z M267.59998,40.81 L267.59998,42.82 C267.00998,43.2 266.36998,43.38 265.57998,43.38 C264.78998,43.38 264.16998,43.14 263.71998,42.66 C263.16998,42.07 262.87998,41.19 262.87998,40.12 C262.87998,38.11 263.88998,36.88 265.53998,36.88 C266.60998,36.88 267.27998,37.34 267.63998,38.32 L268.41998,38.06 C268.19998,37.52 268.01998,37.23 267.68998,36.92 C267.15998,36.43 266.43998,36.18 265.54998,36.18 C263.41998,36.18 262.05998,37.71 262.05998,40.12 C262.05998,41.47 262.50998,42.62 263.28998,43.31 C263.86998,43.81 264.61998,44.05 265.56998,44.05 C266.07998,44.05 266.63998,43.98 267.05998,43.86 C267.51998,43.73 267.81998,43.59 268.41998,43.24 C268.35998,42.84 268.34998,42.6 268.34998,42.13 L268.34998,41.21 C268.34998,40.75 268.35998,40.5 268.41998,40.08 C268.10998,40.11 267.82998,40.12 267.35998,40.12 L267.06998,40.12 C266.52998,40.12 266.27998,40.11 265.97998,40.06 L265.97998,40.87 C266.25998,40.82 266.48998,40.81 267.00998,40.81 L267.59998,40.81 Z M284.409979,38.19 C284.299979,37.68 284.199979,37.43 283.969979,37.13 C283.519979,36.53 282.749979,36.21 281.759979,36.21 C280.209979,36.21 279.199979,37.02 279.199979,38.28 C279.199979,38.98 279.509979,39.51 280.129979,39.86 C280.469979,40.05 280.859979,40.19 281.489979,40.32 C282.699979,40.59 282.809979,40.62 283.139979,40.81 C283.519979,41.02 283.719979,41.39 283.719979,41.88 C283.719979,42.81 282.999979,43.37 281.809979,43.37 C281.069979,43.37 280.469979,43.12 280.139979,42.68 C279.929979,42.41 279.859979,42.17 279.829979,41.69 L278.959979,41.8 C279.059979,42.46 279.169979,42.77 279.429979,43.12 C279.889979,43.74 280.719979,44.07 281.839979,44.07 C283.559979,44.07 284.529979,43.27 284.529979,41.86 C284.529979,40.7 283.889979,40.09 282.289979,39.75 C281.139979,39.5 281.129979,39.5 280.859979,39.39 C280.269979,39.15 279.989979,38.78 279.989979,38.26 C279.989979,37.45 280.709979,36.9 281.739979,36.9 C282.389979,36.9 282.899979,37.1 283.219979,37.48 C283.409979,37.71 283.489979,37.91 283.569979,38.31 L284.409979,38.19 Z M292.079978,36.19 C289.979978,36.19 288.619978,37.74 288.619978,40.14 C288.619978,42.55 289.959978,44.09 292.069978,44.09 C294.179978,44.09 295.529978,42.55 295.529978,40.14 C295.529978,37.73 294.189978,36.19 292.079978,36.19 L292.079978,36.19 Z M292.089978,43.38 C290.489978,43.38 289.429978,42.09 289.429978,40.13 C289.429978,38.17 290.479978,36.89 292.079978,36.89 C292.769978,36.89 293.369978,37.13 293.829978,37.58 C294.409978,38.16 294.709978,39.04 294.709978,40.14 C294.709978,41.21 294.389978,42.14 293.819978,42.7 C293.369978,43.15 292.779978,43.38 292.089978,43.38 L292.089978,43.38 Z M303.829977,43.94 C304.389977,43.94 304.669977,43.96 304.989977,44.01 L304.989977,43.16 C304.599977,43.21 304.329977,43.23 303.829977,43.23 L300.679977,43.23 L300.679977,37.52 C300.679977,36.97 300.699977,36.71 300.759977,36.34 L299.819977,36.34 C299.879977,36.69 299.899977,37 299.899977,37.52 L299.899977,42.78 C299.899977,43.27 299.879977,43.59 299.819977,43.97 C300.169977,43.95 300.449977,43.94 300.909977,43.94 L303.829977,43.94 Z M314.109976,36.34 C314.169976,36.69 314.189976,36.99 314.189976,37.49 L314.189976,41.15 C314.189976,41.79 314.009976,42.35 313.689976,42.74 C313.319976,43.17 312.709976,43.41 311.939976,43.41 C310.509976,43.41 309.689976,42.59 309.689976,41.15 L309.689976,37.49 C309.689976,36.96 309.709976,36.66 309.769976,36.34 L308.829976,36.34 C308.889976,36.69 308.909976,36.98 308.909976,37.49 L308.909976,41.18 C308.909976,42.06 309.159976,42.78 309.649976,43.29 C310.149976,43.82 310.949976,44.1 311.929976,44.1 C312.899976,44.1 313.699976,43.82 314.199976,43.31 C314.699976,42.79 314.969976,42.06 314.969976,41.18 L314.969976,37.47 C314.969976,36.97 314.989976,36.69 315.049976,36.34 L314.109976,36.34 Z M322.429976,37.04 L323.979976,37.04 C324.539976,37.04 324.829976,37.06 325.159976,37.11 L325.159976,36.27 C324.829976,36.32 324.559976,36.34 323.979976,36.34 L320.079976,36.34 C319.549976,36.34 319.289976,36.32 318.939976,36.27 L318.939976,37.11 C319.269976,37.06 319.579976,37.04 320.089976,37.04 L321.649976,37.04 L321.649976,42.81 C321.649976,43.28 321.629976,43.63 321.569976,43.94 L322.509976,43.94 C322.449976,43.58 322.429976,43.3 322.429976,42.81 L322.429976,37.04 Z M329.059975,36.34 C329.119975,36.7 329.139975,36.96 329.139975,37.46 L329.139975,42.82 C329.139975,43.32 329.119975,43.57 329.059975,43.94 L330.009975,43.94 C329.949975,43.6 329.919975,43.26 329.919975,42.82 L329.919975,37.46 C329.919975,37.04 329.949975,36.67 330.009975,36.34 L329.059975,36.34 Z M337.759974,36.19 C335.659974,36.19 334.299974,37.74 334.299974,40.14 C334.299974,42.55 335.639974,44.09 337.749974,44.09 C339.859974,44.09 341.209974,42.55 341.209974,40.14 C341.209974,37.73 339.869974,36.19 337.759974,36.19 L337.759974,36.19 Z M337.769974,43.38 C336.169974,43.38 335.109974,42.09 335.109974,40.13 C335.109974,38.17 336.159974,36.89 337.759974,36.89 C338.449974,36.89 339.049974,37.13 339.509974,37.58 C340.089974,38.16 340.389974,39.04 340.389974,40.14 C340.389974,41.21 340.069974,42.14 339.499974,42.7 C339.049974,43.15 338.459974,43.38 337.769974,43.38 L337.769974,43.38 Z M345.519974,36.34 C345.579974,36.7 345.599974,37 345.599974,37.46 L345.599974,42.75 C345.599974,43.27 345.579974,43.62 345.519974,43.94 L346.449974,43.94 C346.389974,43.61 346.369974,43.28 346.369974,42.75 L346.369974,38.48 C346.369974,38.22 346.349974,37.73 346.309974,37.26 C346.449974,37.53 346.779974,38.1 346.859974,38.22 L350.069974,43.04 C350.339974,43.45 350.449974,43.65 350.589974,43.94 L351.679974,43.94 C351.619974,43.62 351.599974,43.32 351.599974,42.82 L351.599974,37.49 C351.599974,36.98 351.619974,36.7 351.679974,36.34 L350.749974,36.34 C350.809974,36.69 350.829974,37 350.829974,37.49 L350.829974,41.73 C350.829974,41.82 350.849974,42.26 350.889974,43.06 C350.649974,42.63 350.349974,42.14 350.239974,41.97 L347.079974,37.24 C346.789974,36.79 346.659974,36.57 346.569974,36.34 L345.519974,36.34 Z" id="PROFESSIONAL-HD-LIVE" fill-opacity="0.399003623"></path>
                    </g>
                    <g id="logo" transform="translate(146.000000, 0.000000)">
                        <g id="Group" transform="translate(0.217429, 75.414218)" fill="#FFFFFF">
                            <path d="M37.3919499,16.2327122 L34.5368995,16.2327122 L34.5368995,4.42710334 L28.8267988,4.42710334 L28.8267988,2.76693959 L37.0235563,2.76693959 L37.0235563,1.66016375 L28.8267988,1.66016375 L28.8267988,0.0922313196 L27.721618,0.0922313196 L27.721618,1.66016375 L19.7090573,1.66016375 L19.7090573,2.76693959 L27.721618,2.76693959 L27.721618,4.42710334 L22.0115173,4.42710334 L22.0115173,16.2327122 L19.3406637,16.2327122 L19.3406637,17.3394881 L37.3919499,17.3394881 L37.3919499,16.2327122 L37.3919499,16.2327122 Z M33.5238171,7.37850556 L24.498174,7.37850556 L24.498174,8.4852814 L33.5238171,8.4852814 L33.5238171,10.3299078 L24.498174,10.3299078 L24.498174,11.4366836 L33.5238171,11.4366836 L33.5238171,13.28131 L24.498174,13.28131 L24.498174,14.3880859 L33.5238171,14.3880859 L33.5238171,16.2327122 L23.1166981,16.2327122 L23.1166981,5.44164785 L33.5238171,5.44164785 L33.5238171,7.37850556 L33.5238171,7.37850556 Z" id="Shape"></path>
                            <path d="M44.4835265,0.461156598 L43.3783458,0.461156598 L43.3783458,4.33487202 L40.7995906,4.33487202 L40.7995906,5.34941653 L43.3783458,5.34941653 L43.3783458,9.96098251 L40.7995906,9.96098251 L40.7995906,11.0677583 L43.3783458,11.0677583 L43.3783458,16.2327122 L40.7995906,16.2327122 L40.7995906,17.2472568 L44.4835265,17.2472568 L44.4835265,11.0677583 L45.4966089,11.0677583 L45.4966089,9.96098251 L44.4835265,9.96098251 L44.4835265,5.34941653 L45.4966089,5.34941653 L45.4966089,4.33487202 L44.4835265,4.33487202 L44.4835265,0.461156598 Z" id="Shape"></path>
                            <path d="M54.1538584,6.17949841 L58.6666799,6.17949841 L58.6666799,5.1649539 L54.982744,5.1649539 L56.824712,3.50479014 L55.9958264,2.76693959 L53.5091696,5.1649539 L52.8644808,5.1649539 L52.8644808,2.30578299 L57.8377944,2.30578299 L57.8377944,1.19900715 L46.7859865,1.19900715 L46.7859865,2.30578299 L51.7593,2.30578299 L51.7593,5.1649539 L51.1146113,5.1649539 L48.7200529,2.76693959 L47.9832657,3.50479014 L49.6410369,5.1649539 L46.2333961,5.1649539 L46.2333961,6.17949841 L50.5620209,6.17949841 L45.7729041,9.31536328 L46.3254945,10.2376765 L51.7593,6.64065501 L51.7593,9.40759459 L52.8644808,9.40759459 L52.8644808,6.64065501 L58.1140895,10.0532138 L58.6666799,9.13090064 L54.1538584,6.17949841 Z" id="Shape"></path>
                            <path d="M46.9701833,17.5239507 L48.0753641,17.5239507 L48.0753641,16.7861002 L56.4563184,16.7861002 L56.4563184,17.5239507 L57.5614992,17.5239507 L57.5614992,9.96098251 L46.9701833,9.96098251 L46.9701833,17.5239507 L46.9701833,17.5239507 Z M52.7723824,11.0677583 L56.4563184,11.0677583 L56.4563184,12.7279221 L52.7723824,12.7279221 L52.7723824,11.0677583 L52.7723824,11.0677583 Z M52.7723824,13.7424666 L56.4563184,13.7424666 L56.4563184,15.6793243 L52.7723824,15.6793243 L52.7723824,13.7424666 L52.7723824,13.7424666 Z M48.0753641,13.7424666 L48.0753641,12.6356908 L48.0753641,11.0677583 L51.7593,11.0677583 L51.7593,12.7279221 L49.5489385,12.7279221 L49.5489385,13.8346979 L51.7593,13.8346979 L51.7593,15.6793243 L48.0753641,15.6793243 L48.0753641,13.7424666 L48.0753641,13.7424666 Z" id="Shape"></path>
                            <path d="M11.5122998,1.29123847 L11.5122998,2.39801431 L13.5384646,2.39801431 L7.55206869,15.6793243 L1.10518078,1.29123847 L0,1.29123847 L0.276295196,1.93685771 L7.18367509,17.5239507 L7.92046228,17.5239507 L14.7357438,2.39801431 L14.9199406,1.84462639 L15.012039,1.75239507 L15.1962358,1.29123847 L11.5122998,1.29123847 Z" id="Shape"></path>
                        </g>
                        <g id="Group" transform="translate(0.709106, 0.000000)">
                            <path d="M1.49052863,2.43878285 L6.11229523,1.1106746 L58.9324849,17.2139871 L57.9421064,21.3643254 L22.6186045,52.5748693 L20.8029105,48.092504 L41.270734,21.530339 L1.49052863,4.09891817 L1.49052863,2.43878285 Z" id="Shape" fill="url(#linearGradient-1)"></path>
                            <path d="M7.76292616,9.24533764 L4.4616643,6.58912114 L10.5689987,59.7134512 L13.3750713,62.5356812 L54.3107183,35.9735162 L58.9324849,17.2139871 L22.6186045,50.914734 L21.2980998,47.4284499 L7.76292616,9.24533764 Z" id="Shape" fill="url(#linearGradient-2)"></path>
                            <path d="M41.7659233,20.8662848 L34.5031472,30.3290561 L4.6267274,7.08716173 L13.3750713,62.5356812 L0.995339354,49.7526393 L1.49052863,2.43878285 L41.7659233,20.8662848 Z" id="Shape" fill="url(#linearGradient-3)"></path>
                        </g>
                    </g>
                </g>
            </g>
        </g>
    </g>
</svg>